<?xml version="1.0" encoding="utf-8"?>
<!-- Generator: Adobe Illustrator 24.0.1, SVG Export Plug-In . SVG Version: 6.00 Build 0)  -->
<svg version="1.1" id="Layer_1" xmlns="http://www.w3.org/2000/svg" xmlns:xlink="http://www.w3.org/1999/xlink" x="0px" y="0px"
	 viewBox="0 0 576 432" style="enable-background:new 0 0 576 432;" xml:space="preserve">
<style type="text/css">
	.st0{fill:#FFFFFF;}
	.st1{fill:#83CECF;}
</style>
<g>
	<path class="st0" d="M284.83,119.47c4.96,0.58,34.35-4.48,33.66,1.02c-0.2,0.28-0.43,0.63-0.68,0.99
		c-0.9,3.45,0.29,7.34,2.07,11.46c11.58,20.3,21.93,41.84,34.13,62.59c2.19-25.11-2.44-51.09-0.19-76.76
		c8.98-1.15,19.01,0.29,29.2,0.03c0.38-0.18,0.76-0.37,1.19-0.57c1.09,0.56,2.75-0.79,3.61,1.02
		c-0.21,49.93,0.56,100.22,3.63,150.75c0.94,2.78,1.74,5.57,3.19,8.1c-1.23,0.75-2.36,1.43-3.59,2.18
		c0.36,3.56-1.24,8.38,1.26,12.59c-0.52,1.64-1,3.32,0.84,4.79c-0.68,1.32-1.36,2.62-2.15,4.15c0,0.1,0,0.47,0,0.77
		c-0.77,1.34-1.51,2.61-2.16,3.75c-10.07,2.01-19.58-3.61-30.68-3.73c-0.51-0.56-1.08-1.18-1.73-1.9c0.13-1.3,0.25-2.62,0.39-4
		c-1.69-7.5,2.07-16.64-2.33-24.44c-11.15-24.48-21.69-47.22-35.83-70.6c-0.12,0.04-0.24,0.07-0.35,0.11
		c1.33,33.38-1.21,66.81-0.14,100.81c0.1,0.02,0.21,0.03,0.31,0.05c-0.29,0.5-0.58,1.01-0.85,1.47c-0.88,0.36-1.71,0.69-2.73,1.1
		c-3.64,0.36-7.44,0.29-12.09,0.81c-0.7-0.19-1.41-0.39-2.36-0.65c-1.75,0.35-3.73,0.75-5.39,1.09c-3.91-0.49-6.88-0.41-11.36-0.57
		c0.31-29.61,1.87-60.09,1.61-90.68C284.58,183.15,281.57,151.33,284.83,119.47z"/>
	<path class="st0" d="M272.76,282.13c-0.29,2.08-0.02,4.24-0.97,5.52c0.4,13.71-8.15,23.39-22.38,23.92
		c-0.34-0.55-0.59-0.94-0.89-1.42c-34.21-5.62-52.36,5.74-66.11-13.95c-0.46-0.75-0.92-1.51-1.53-2.49
		c-0.05-0.77-2.37-5.97-2.99-6.64c-0.9-1.83-0.59-5.25-1.85-7.95c0.69-43.12,1.99-86.96,3.63-130.94c-0.79-1.14-2.48-1.89-2.08-3.77
		c1.2-2.06,1.54-4.32,1.41-6.82c2.99-6.07,4.47-13.29,11.16-17.84c4.38-2.11,9.46-3.98,15.12-5.03c15.72,2.95,33-0.22,49.41,4.14
		c30.23,18,22.05,60.11,21.33,90.63C275.11,234.88,278.71,270.16,272.76,282.13z M235.01,149.72c-6.51,0.46-15.18-2.46-21.96,0.58
		c-2.2,8.7-0.9,17.51-0.97,27.07c-0.66,30.68-2.16,59.36-2.37,90.36c0.06,0,0.13,0,0.19,0c-0.16,0.39-0.33,0.78-0.45,1.07
		c0.14,1.76,0.09,3.02,2.6,5.21c8.63-0.41,17.95,0.53,27.24,0.89c1.45-2.48,0.71-5.92,1.9-9.72c0.15-0.18,0.49-0.59,0.85-1.02
		c0.85-13.8,1.53-28.69,0.59-43.33c0.57-8.12,0.69-16.27,0.38-24.9c1.16-5.04,2.14-12.45,0.43-18.38c-0.07-1.79,1.46-4.45,0.09-6.54
		C244.58,163.36,243.91,153.44,235.01,149.72z"/>
	<path class="st0" d="M497.18,297.39c-12.43,16.05-20.22,15.11-38.34,12.64c-0.23-0.54-0.43-1.02-0.62-1.48
		c-15.54-2.31-32.11,1.92-48.32-2.95c-3.62-15.46,0.14-32.26-1.78-48.76c-0.96-19.96-4.05-38.34-0.52-58.34
		c-1.46-26.71-2.81-51.79,0.88-78.66c3.54-2.43,8.59-0.8,13.38-0.43c3.45,0.26,22.83-2.98,21.72,2.13
		c9.19,2.01,18.89-0.09,28.57,0.06c0.97,0.68,2.15,1.5,3.44,2.4c1.54-0.12,3.23-0.25,4.94-0.39c28.24,17.26,22.25,53.82,22.62,83.04
		c-1.74,36.74,4.59,74.76-5.71,90.75C497.36,297.4,497.27,297.39,497.18,297.39z M440.28,155.21c-1.28,20.51,4.32,42.14,0.97,63.1
		c-5.18,18.14,0.83,34.89,0.15,53.88c5.77,0,17.03,0,23.03,0c1.18-1.15,2.5-2.45,3.47-3.4c2.85-15.49,0.86-31.81,1.2-48.13
		C468.98,145.31,475.76,156.8,440.28,155.21z"/>
	<path class="st1" d="M502.73,332.63c0.35,0.83,0.62,1.48,0.79,1.88c-0.18,2.43-0.34,4.58-0.5,6.73c0.09,0.02,0.19,0.05,0.28,0.07
		c-0.23,0.59-0.47,1.18-0.71,1.8c-0.75,8.66-1.86,18.86-3.7,28.13c-0.61,2.77,0.92,10.28-3.35,9.75
		c-12.14-1.62-24.53-1.46-37.6-2.67c-29.77-0.86-57.7,2.78-87.77-0.09c-22.29,0.36-42.87-1.26-65.37-3.24
		c-36.49,0.23-72.33,0.29-109.38-0.35c-25.3-1.19-48.15-5.69-73.48-6.93c-15.76,0.64-29.26,0.67-45.04-0.16
		c-0.21-0.08-0.8-0.3-1.63-0.62c-0.92-9.75-0.11-19.92,0.55-30.52c-0.27-1.61-0.53-3.22-0.8-4.83c0.05,0,0.1,0.01,0.14,0.01
		c0.36-3.33-0.85-8.22,1.3-12c18.75,2.81,38.11,0.56,57.85,1.05c28.44,2.84,56.38,6.88,85.56,6.33c32.21,0.48,63.27,0.29,95.71,0.09
		c23.34,3.37,45.7,3.02,69.09,3.98C424.48,332.03,462.61,329.81,502.73,332.63z"/>
	<path class="st1" d="M492.84,58.56c0.91,1.25,1.83,2.51,2.81,3.86c0.21,10.56-0.47,22.23-0.83,33.75
		c-0.57,2.28,2.83,10.47-3.41,9.11c-35.74-6.36-74.1-4.05-111.4-6.34c-16.99,0.04-32.42,4.26-49.69,1.8
		c-45.04-6.39-91.45-0.87-137.14-3.87c-4.26,1.47-8.19-0.13-12.53,1.43c-1.15-0.07-0.49-2.51-0.68-4.21
		c0.51-6.13,0.8-12.23,0.17-19.22c0.79-4.69,0.26-9.99,0.05-15.81c0.4-1.55,0.2-4.3,2.02-4.83c5.72,2,11.58-4.92,18.25-2.44
		c14.3,3.14,27.52,0.03,42.62,0.32c32.81-0.26,63.11-0.99,96.07,3.22c51.64-3.89,101.81,0.16,153.67,2.51
		C492.83,58.1,492.83,58.33,492.84,58.56z"/>
	<path class="st0" d="M76.45,127.58c-0.56-4.23,0.59-9.02-0.21-14.04c2.08-2.41,2.1-2.41,5.13-1.25c0.92-0.14,1.75-0.26,2.82-0.42
		c3.77-0.97,9.17,1.1,14.39-0.12c3.26,0.65,8.77-3.07,11.67,0.97c21.24,0.74,36.89-4.62,48.63,15.82
		c12.07,9.02,5.23,24.18,6.85,37.46c-0.81,20.1,4.31,41.07-3.31,55.77c0.33,4.21-5.75,6.01-8.03,9.54
		c-13.96,8.1-30.68,5.72-46.37,9.65c-0.68,15.48,3.68,59.53-2.22,58.57c-7.54,0.35-16.2-1.83-24.54-0.17
		c-1.6-0.69-3.13-1.43-4.78-1.05C75.63,241.72,73.29,184.71,76.45,127.58z M108.44,145.11c-0.44,20.03-1.76,41.09-1.2,61.92
		c7.2-0.18,15.57,0.35,23.26-2.43c5.26-8.46,1.58-25.5,2.23-35.6c-0.82-7.57,2.13-15.05-1.1-21.85c-1.24,0-2.61,0-3.98,0
		C122.95,143.98,114.85,145.68,108.44,145.11z"/>
	<g>
		<path class="st0" d="M114.51,69.84c2.83-0.05,6.16-0.65,9.53-0.05c0.44-5.91-1.13-12.27,0.23-18.65
			c2.94-0.17,6.78-0.07,10.46,0.62c-0.16,14.54,0.98,29.63,1.29,45.14c-1.92,1.42-7.34,0.95-11.18-0.28
			c-0.18-4.71,0.01-12.46-0.15-18.12c-2.93-0.08-5.69-0.68-9.09-0.05c0.09,5.96,0.43,12.19,0.73,18.73
			c-0.79,1.07-8.23,0.89-11.72-0.17c0.31-11.54-1.18-23.09-1.69-35.66c0.7-10.31-1.93-10.85,12.13-9.94
			C114.17,56.76,114.02,63.52,114.51,69.84z"/>
		<path class="st0" d="M140.35,96.06c1.36-14.05-1.41-29.65-0.39-44.56c7.33-1.07,15.56,0.83,24.42,1.5
			c1.19,0.11,1.95,6.58,0.47,10.31c-4.05,0.06-10.51-1.05-15.35-1.53c0.1,1.53,0.2,7.2,0.3,8.73c4.19,0.3,6.01-0.28,10.64,0.4
			c0.63,2.84,0.89,5.43,0.49,9.47c-1.63,1.26-7.83-0.84-10.74,0.2c-0.31,1.05-0.03,4.9-0.13,7.27c0.04,1.32-0.4,1.59,1.47,1.55
			c5.99-0.08,8.28-0.14,14.28,0.42c0.74,1.25-0.61,2.91,0.7,4.88c-0.89,0.53-0.12,1.41-0.76,2.84c0.31,0.08,0.04,1.24,0.07,2.03
			C164.79,99.23,140.11,102.28,140.35,96.06z"/>
		<path class="st0" d="M100.15,60.85c-2.19,0.96-7.47-1.21-8.19,1.38c-0.27,12.27,1.29,22.35,1.96,34.97
			c-0.25-0.1-0.41-0.17-0.6-0.24c-2.01,1.22-4.24,0.34-8.87,0.25C83.87,86.65,82,72.89,82.73,60.98c-2.84-0.29-5.88-0.79-9.78,0.25
			c-2.94-11.44-2.51-11.09,12.51-10.28c4.77,0.09,8.99-0.25,14.47,0.03C101.3,53.69,100.04,56.77,100.15,60.85z"/>
	</g>
</g>
</svg>
