<?xml version="1.0" encoding="utf-8"?>
<!-- Generator: Adobe Illustrator 24.0.1, SVG Export Plug-In . SVG Version: 6.00 Build 0)  -->
<svg version="1.1" id="Layer_1" xmlns="http://www.w3.org/2000/svg" xmlns:xlink="http://www.w3.org/1999/xlink" x="0px" y="0px"
	 viewBox="0 0 720 432" style="enable-background:new 0 0 720 432;" xml:space="preserve">
<style type="text/css">
	.st0{fill:#FFFFFF;}
</style>
<g>
	<g>
		<g>
			<path class="st0" d="M372.7,132.83c0.65-0.1,1.19-0.23,1.74-0.26c0.39-0.02,0.78,0.12,1.17,0.11c1.11-0.01,2.23-0.03,3.34-0.09
				c0.35-0.02,0.7-0.21,1.05-0.21c0.84-0.02,1.68-0.08,2.51-0.13c1.47-0.09,2.95,0.04,4.41-0.21c0.13-0.02,0.27,0,0.41,0
				c0.3,0,0.59,0,0.89-0.01c0.22-0.01,0.45-0.07,0.67-0.06c1.07,0.02,1.37,0.28,1.6,1.39c-0.1,0.15-0.23,0.33-0.36,0.52
				c-0.06,0.72-0.15,1.45-0.16,2.18c0,0.44,0.07,0.9,0.22,1.31c0.23,0.63,0.57,1.21,0.83,1.83c0.12,0.28,0.17,0.59,0.21,0.74
				c0.49,0.89,0.89,1.66,1.32,2.41c0.68,1.19,1.39,2.37,2.08,3.56c0.21,0.36,0.41,0.73,0.6,1.11c0.71,1.38,1.41,2.76,2.12,4.13
				c0.41,0.8,0.87,1.57,1.28,2.37c0.81,1.58,1.57,3.18,2.4,4.75c1.17,2.18,2.37,4.34,3.58,6.5c0.82,1.47,1.66,2.93,2.49,4.4
				c0.7,1.24,1.39,2.48,2.17,3.85c0.07-0.31,0.15-0.51,0.16-0.7c0.04-1.18,0.06-2.37,0.08-3.55c0.04-2.48,0.12-4.96,0.1-7.45
				c-0.01-1.66-0.16-3.32-0.26-4.98c-0.09-1.6-0.22-3.21-0.29-4.81c-0.09-2.09-0.19-4.18-0.2-6.26c-0.01-3.02,0.05-6.04,0.11-9.06
				c0.02-0.92,0.27-1.84,0.01-2.77c-0.07-0.26,0.11-0.6,0.19-0.97c0.21-0.08,0.43-0.22,0.66-0.24c0.53-0.04,1.07-0.04,1.6-0.03
				c1.79,0.05,3.58,0.11,5.37,0.16c0.17,0.01,0.34,0.04,0.5,0.06c0.72,0.09,1.42,0.16,2.16,0.05c0.79-0.13,1.62-0.03,2.44-0.04
				c0.42-0.01,0.84-0.05,1.26-0.06c0.47-0.01,0.94,0,1.43,0.11c0.2-0.1,0.4-0.19,0.63-0.3c0.57,0.3,1.45-0.42,1.91,0.54
				c0,0.42,0.01,0.83,0,1.25c-0.05,1.3-0.13,2.59-0.17,3.89c-0.05,1.72-0.09,3.44-0.12,5.16c-0.03,1.52-0.11,3.05-0.03,4.56
				c0.13,2.56,0.4,5.12,0.53,7.68c0.14,2.56,0.21,5.12,0.27,7.68c0.03,1.12-0.06,2.25-0.06,3.38c0,2.95,0.02,5.9,0.03,8.85
				c0.01,2.02-0.01,4.05,0.04,6.07c0.03,1.35,0.18,2.7,0.24,4.06c0.06,1.43,0.06,2.86,0.08,4.29c0.03,1.63,0.05,3.27,0.1,4.9
				c0.04,1.27,0.11,2.53,0.15,3.8c0.06,1.72,0.09,3.44,0.18,5.16c0.07,1.51,0.2,3.02,0.31,4.53c0.01,0.2,0.08,0.39,0.1,0.58
				c0.05,0.55,0.09,1.11,0.13,1.66c0.05,0.74,0.1,1.49,0.14,2.18c0.5,1.47,0.92,2.94,1.69,4.28c-0.65,0.4-1.25,0.76-1.9,1.15
				c0,0.47,0.01,0.92,0,1.37c-0.02,0.79-0.05,1.58-0.07,2.37c-0.02,0.79,0,1.58,0.44,2.29c0.12,0.19,0.19,0.4,0.3,0.64
				c-0.27,0.87-0.53,1.76,0.44,2.53c-0.36,0.7-0.72,1.39-1.14,2.19c0,0.05,0,0.25,0,0.4c-0.41,0.71-0.8,1.38-1.14,1.98
				c-1.4,0.56-2.7,0.4-4,0.08c-0.19-0.05-0.39-0.16-0.57-0.14c-1.26,0.16-2.36-0.37-3.51-0.73c-0.58-0.18-1.22-0.15-1.83-0.26
				c-1.35-0.23-2.69-0.51-4.05-0.72c-0.72-0.11-1.46-0.14-2.26-0.21c-0.27-0.29-0.57-0.62-0.91-1c0.07-0.69,0.13-1.38,0.2-2.11
				c-0.27-0.52-0.31-1.08-0.25-1.71c0.13-1.4,0.14-2.81,0.15-4.22c0.01-1.24-0.11-2.48-0.04-3.71c0.05-0.83-0.33-1.47-0.6-2.16
				c-0.3-0.76-0.67-1.48-1.01-2.22c-0.81-1.78-1.6-3.57-2.42-5.34c-0.72-1.55-1.47-3.09-2.21-4.64c-0.9-1.9-1.79-3.81-2.7-5.71
				c-0.6-1.27-1.21-2.54-1.83-3.79c-0.57-1.15-1.17-2.3-1.77-3.44c-0.54-1.02-1.09-2.03-1.66-3.03c-0.49-0.88-1.05-1.72-1.51-2.62
				c-0.52-0.99-1.13-1.93-1.58-2.96c-0.29-0.66-0.77-1.28-1.11-1.96c-0.35-0.7-0.77-1.37-1.17-2.05c-0.13-0.23-0.3-0.44-0.45-0.66
				c-0.06,0.02-0.12,0.04-0.19,0.06c0,0.8-0.04,1.6,0.01,2.4c0.22,4.22,0.37,8.45,0.18,12.68c-0.07,1.63,0,3.27-0.03,4.9
				c-0.04,2.19-0.13,4.38-0.18,6.57c-0.05,2.17-0.11,4.34-0.12,6.51c-0.01,0.95,0.12,1.9,0.11,2.86c-0.01,1.12-0.11,2.25-0.13,3.37
				c-0.04,1.55-0.14,3.1-0.05,4.64c0.13,2.03-0.13,4.04-0.01,6.06c0.04,0.64,0.11,1.28,0.14,1.93c0.02,0.46,0,0.92,0,1.38
				c0.05,0.01,0.11,0.02,0.17,0.03c-0.15,0.27-0.31,0.53-0.45,0.78c-0.47,0.19-0.9,0.37-1.45,0.58c0.01,0-0.11-0.08-0.2-0.05
				c-0.94,0.25-1.95-0.06-2.89,0.33c-0.31,0.13-0.74,0.16-1.05,0.06c-0.77-0.25-1.5-0.22-2.25,0.09c-0.37-0.1-0.75-0.21-1.25-0.34
				c-0.93,0.19-1.97,0.4-2.85,0.58c-1.62-0.05-3.07-0.47-4.57-0.24c-0.43,0.07-0.89-0.04-1.43-0.07c-0.15-1.17-0.26-2.32,0.03-3.48
				c0.15-0.59,0.18-1.17,0.14-1.8c-0.1-1.25,0.04-2.52,0.07-3.78c0.03-1.47,0.02-2.93,0.05-4.4c0.03-1.38,0.09-2.76,0.12-4.14
				c0.03-1.63,0.04-3.26,0.07-4.9c0.01-0.79,0.07-1.58,0.09-2.36c0.03-1.71,0.04-3.42,0.07-5.13c0.02-1.25,0.08-2.5,0.1-3.75
				c0.03-1.63,0.02-3.26,0.05-4.89c0.01-0.7,0.02-1.41,0.09-2.11c0.23-2.14-0.01-4.28,0-6.42c0-1.04-0.17-2.07-0.21-3.11
				c-0.05-1.54-0.03-3.09-0.08-4.63c-0.1-3.2-0.25-6.4-0.35-9.6c-0.07-2.05-0.1-4.11-0.14-6.16c-0.03-1.29-0.02-2.58-0.05-3.86
				c-0.03-1.2-0.12-2.4-0.15-3.61c-0.02-0.87,0.02-1.74,0.01-2.62c-0.02-1.66-0.11-3.31-0.07-4.97c0.08-2.96,0.26-5.91,0.37-8.87
				c0.03-0.76-0.02-1.53-0.14-2.27C372.06,133.81,372.33,133.3,372.7,132.83z"/>
			<path class="st0" d="M366.32,218.8c-0.15,1.1-0.01,2.24-0.51,2.92c-0.06,0.95-0.11,1.58-0.15,2.21
				c-0.01,0.08-0.05,0.17-0.03,0.25c0.28,1.23-0.33,2.23-0.83,3.27c-0.54,1.12-1.24,2.13-1.97,3.13c-0.8,1.1-1.83,1.96-3.05,2.58
				c-0.31,0.16-0.71,0.18-1.07,0.23c-0.93,0.11-1.8,0.38-2.68,0.7c-0.64,0.23-1.37,0.19-2.06,0.27c-0.18-0.29-0.31-0.5-0.47-0.75
				c-0.21,0.01-0.43,0.02-0.64,0.05c-0.11,0.01-0.22,0.1-0.32,0.09c-0.96-0.13-1.92-0.28-2.88-0.41c-1.05-0.14-2.11-0.3-3.17-0.41
				c-1.12-0.11-2.25-0.13-3.36-0.28c-1.15-0.16-2.29-0.19-3.45-0.21c-0.5-0.01-1.01,0.04-1.54-0.11c-0.48-0.14-1.06,0.02-1.59,0.06
				c-0.89,0.08-1.78,0.18-2.67,0.25c-0.78,0.06-1.57,0.06-2.36,0.15c-1.04,0.12-2.05-0.08-3.07-0.21c-1.57-0.21-3.05-0.76-4.5-1.32
				c-0.7-0.27-1.29-0.86-1.89-1.36c-0.7-0.59-1.36-1.24-2.03-1.88c-0.26-0.25-0.49-0.53-0.71-0.81c-0.26-0.32-0.5-0.66-0.77-0.96
				c-0.24-0.4-0.49-0.8-0.81-1.32c-0.03-0.41-1.25-3.15-1.58-3.51c-0.13-0.46-0.24-0.8-0.32-1.16c-0.1-0.49-0.26-0.99-0.24-1.48
				c0.03-0.66-0.17-1.21-0.42-1.56c-0.08-0.69-0.15-1.21-0.21-1.72c-0.04-0.39-0.11-0.78-0.1-1.16c0.03-0.95,0.08-1.91,0.15-2.86
				c0.02-0.33,0.17-0.64,0.19-0.97c0.12-1.96,0.28-3.92,0.32-5.88c0.04-2.11-0.07-4.22-0.04-6.33c0.02-1.49,0.17-2.97,0.24-4.46
				c0.02-0.53-0.05-1.07-0.04-1.61c0.05-1.57,0.15-3.14,0.2-4.71c0.04-1.21,0-2.41,0.04-3.62c0.04-1.23,0.13-2.46,0.2-3.7
				c0.01-0.22,0.01-0.45,0.02-0.68c0.04-1.03,0.08-2.05,0.13-3.08c0.08-1.63,0.19-3.27,0.23-4.9c0.02-0.66-0.16-1.32-0.16-1.97
				c-0.01-0.67,0.11-1.34,0.13-2.01c0.06-1.46,0.14-2.92,0.15-4.38c0.01-1.8-0.06-3.6-0.06-5.41c0-0.78,0.08-1.56,0.11-2.34
				c0.03-0.97,0.11-1.95,0.05-2.92c-0.09-1.42,0.21-2.79,0.37-4.18c0.01-0.08,0.01-0.17,0.02-0.31c-0.42-0.6-1.31-1-1.1-1.99
				c0.63-1.09,0.82-2.29,0.75-3.6c0.27-0.5,0.65-1.06,0.89-1.67c0.34-0.86,0.53-1.77,0.86-2.63c0.48-1.24,1.14-2.38,2.11-3.31
				c0.38-0.36,0.87-0.61,1.27-0.95c0.25-0.21,0.45-0.5,0.77-0.87c1.12-0.48,2.38-1.05,3.65-1.56c0.58-0.23,1.2-0.39,1.82-0.53
				c0.84-0.19,1.69-0.32,2.52-0.57c0.06,0,0.12-0.02,0.17,0c1.32,0.69,2.76,0.35,4.14,0.48c0.53,0.05,1.06,0.1,1.59,0.16
				c0.08,0.01,0.17,0.03,0.25,0.02c1.17-0.02,2.35-0.05,3.52-0.08c0.08,0,0.17-0.02,0.25,0c1.39,0.31,2.81,0.2,4.22,0.27
				c1.63,0.08,3.26,0.28,4.89,0.4c0.73,0.05,1.46,0.02,2.19,0.04c0.7,0.01,1.4,0.04,2.09,0.05c0.7,0.01,1.26,0.41,1.89,0.61
				c0.31,0.1,0.63,0.16,0.91,0.23c0.61,0.38,1.2,0.75,1.78,1.12c1.01,0.65,2.01,1.31,2.77,2.28c0.47,0.59,0.97,1.17,1.54,1.67
				c0.58,0.51,0.92,1.13,1.2,1.81c0.35,0.86,0.71,1.72,1.1,2.56c0.28,0.61,0.6,1.2,0.95,1.77c0.45,0.71,0.62,1.5,0.8,2.3
				c0.17,0.71,0.47,1.4,0.52,2.11c0.06,0.86,0.36,1.63,0.62,2.42c0.13,0.39,0.21,0.8,0.28,1.2c0.06,0.3,0.1,0.61,0.12,0.91
				c0.02,0.45-0.01,0.9,0.02,1.34c0.08,1.15,0.19,2.29,0.28,3.44c0.04,0.5,0.1,1,0.12,1.51c0.04,1.37,0.11,2.75,0.08,4.12
				c-0.02,0.86-0.2,1.71-0.3,2.57c-0.01,0.08-0.01,0.17-0.01,0.25c0.15,2.74-0.08,5.46-0.29,8.18c-0.1,1.29-0.23,2.58-0.28,3.87
				c-0.05,1.38-0.03,2.76-0.04,4.13c-0.01,1.15-0.04,2.29-0.04,3.44c0,1.04,0.1,2.08,0.06,3.12c-0.07,1.85,0.06,3.7,0.08,5.55
				c0.02,1.8-0.07,3.6-0.09,5.4c-0.01,0.51,0.02,1.02,0.11,1.52c0.19,1.16-0.06,2.3-0.08,3.45c-0.02,1.57-0.11,3.13-0.17,4.7
				c-0.01,0.34-0.02,0.68-0.05,1.02c-0.16,1.96-0.33,3.92-0.5,5.88c-0.02,0.2-0.05,0.39-0.06,0.59
				C367.19,217.95,367.19,217.95,366.32,218.8z M346.37,148.82c-1.09-0.04-2.19-0.14-3.29-0.12c-1.44,0.03-2.84-0.42-4.29-0.23
				c-0.3,0.04-0.61,0.11-0.91,0.11c-0.58,0-1.17-0.1-1.75-0.07c-0.99,0.05-1.66,0.63-1.7,1.54c-0.13,2.53-0.23,5.06-0.29,7.59
				c-0.04,1.4,0.01,2.81,0.03,4.21c0.01,0.79,0.14,1.59,0.05,2.36c-0.26,2.3-0.03,4.6-0.13,6.9c-0.04,0.87,0.02,1.74-0.02,2.61
				c-0.11,2.36-0.25,4.72-0.38,7.08c-0.04,0.64-0.11,1.29-0.12,1.93c-0.02,1.21,0.01,2.42,0,3.63c-0.01,1.01-0.03,2.03-0.08,3.04
				c-0.09,1.94-0.45,3.86-0.16,5.81c0.02,0.16-0.04,0.33-0.06,0.5c-0.04,0.25-0.11,0.5-0.11,0.75c0,1.2,0.01,2.41,0.03,3.61
				c0.02,1.29,0.06,2.59,0.08,3.88c0,0.31-0.04,0.62-0.06,0.92c-0.1,1.53-0.21,3.07-0.28,4.6c-0.03,0.57,0.05,1.14,0.07,1.72
				c0.03,0,0.07,0,0.1,0c-0.09,0.21-0.17,0.41-0.24,0.57c0.04,0.4,0.04,0.74,0.12,1.06c0.06,0.26,0.19,0.52,0.36,0.73
				c0.23,0.3,0.52,0.57,0.9,0.96c0.31,0,0.75,0,1.2,0c2,0,4.01-0.06,6.01,0.02c1.8,0.07,3.59,0.31,5.38,0.44
				c0.59,0.04,1.18,0.01,1.8,0.01c0.24-0.4,0.5-0.78,0.46-1.31c-0.03-0.46,0-0.94,0.07-1.39c0.12-0.77,0.3-1.54,0.47-2.43
				c0.08-0.1,0.26-0.31,0.45-0.54c0-0.42-0.03-0.84,0.01-1.25c0.08-0.96,0.19-1.91,0.27-2.87c0.08-0.86,0.15-1.73,0.2-2.6
				c0.02-0.36-0.02-0.72-0.03-1.08c-0.01-0.31-0.06-0.62-0.05-0.93c0.04-1.69,0.12-3.38,0.12-5.07c0.01-2.39-0.01-4.78-0.05-7.17
				c-0.01-0.67-0.11-1.33-0.16-1.94c0.06-0.34,0.13-0.63,0.15-0.93c0.16-2.49-0.07-4.99,0.12-7.49c0-0.06,0.04-0.13,0.02-0.16
				c-0.35-0.51-0.06-1.04-0.03-1.56c0.03-0.59,0.15-1.18,0.15-1.76c0-0.42-0.13-0.84-0.21-1.27c0.12-0.26,0.34-0.55,0.37-0.86
				c0.1-1.37,0.13-2.74,0.19-4.11c0.02-0.53,0.06-1.06,0.09-1.6c0.06-1.11,0.25-2.25-0.42-3.15c0.12-0.83,0.22-1.55,0.33-2.27
				c0.07-0.46,0.07-0.89-0.28-1.19c0.08-0.34,0.16-0.61,0.2-0.89c0.21-1.36-0.37-2.7-0.13-4.07c0.04-0.25-0.08-0.58-0.23-0.8
				c-0.34-0.5-0.34-1.07-0.36-1.62c-0.02-0.47-0.23-0.78-0.54-1.08c-0.39-0.39-0.79-0.79-1.13-1.23c-0.35-0.45-0.74-0.8-1.31-0.97
				C347.04,149.29,346.74,149.04,346.37,148.82z"/>
			<path class="st0" d="M484.94,226.87c-0.33,0.37-0.67,0.73-0.98,1.12c-1.53,1.88-3.1,3.71-5.36,4.78
				c-0.6,0.28-1.04,0.85-1.75,0.97c-0.69,0.12-1.36,0.32-2.04,0.46c-1.66,0.36-3.3,0.12-4.93-0.22c-0.24-0.05-0.51,0-0.76-0.02
				c-1.27-0.07-2.54-0.13-3.8-0.21c-0.22-0.01-0.42-0.13-0.64-0.2c-0.12-0.28-0.23-0.54-0.33-0.78c-0.38-0.33-0.81-0.37-1.28-0.37
				c-1.49,0-2.98-0.07-4.47-0.06c-1.38,0.01-2.75,0.11-4.13,0.14c-1.68,0.03-3.34,0.35-5.03,0.17c-0.93-0.1-1.9,0.11-2.85,0.16
				c-0.28,0.02-2.61-0.8-2.89-0.84c-1.19-0.18-2.38-0.37-3.57-0.55c-0.41-0.06-0.83-0.13-1.32-0.2c-0.41-1.73-1.16-3.35-0.88-5.2
				c0.16-1,0.14-2.03,0.16-3.04c0.04-2.99,0.1-5.98,0.07-8.97c-0.02-2.31-0.16-4.62-0.24-6.94c-0.05-1.35-0.07-2.71-0.15-4.06
				c-0.12-2.11-0.25-4.22-0.42-6.33c-0.19-2.25-0.43-4.49-0.64-6.74c-0.04-0.39-0.02-0.79-0.05-1.18c-0.2-2.33,0.16-4.08-0.02-6.42
				c-0.18-2.39,1.14-4.55,1-6.95c-0.11-1.83-0.18-3.66-0.26-5.5c-0.14-3.1-0.29-6.2-0.4-9.3c-0.07-1.86-0.05-3.73-0.11-5.59
				c-0.05-1.63-0.2-3.26-0.21-4.9c-0.02-1.52,0.09-3.04,0.13-4.55c0.02-0.56,0.05-1.13,0.04-1.69c-0.03-1.4,0.36-2.73,0.58-4.1
				c0.2-1.19,0.25-2.42,0.53-3.59c0.26-1.07,0.09-2.13,0.12-3.15c0.69-0.64,1.47-0.7,2.27-0.66c1.18,0.06,2.36,0.15,3.54,0.24
				c0.36,0.03,0.71,0.11,1.26,0.2c0.93-0.43,2.07-0.18,3.21-0.1c0.61,0.04,1.23-0.14,1.84-0.15c0.61-0.01,1.23,0.08,1.84,0.08
				c0.76-0.01,1.54,0.03,2.26-0.13c0.66-0.15,1.24,0,1.82,0.19c0.55,0.19,0.57,0.71,0.5,1.24c0.18,0.06,0.33,0.17,0.48,0.17
				c1.13-0.02,2.21,0.3,3.36,0.24c1.71-0.1,3.44,0.04,5.16,0.06c0.65,0.01,1.3,0,1.95-0.05c0.27-0.02,0.55-0.13,0.78-0.27
				c0.72-0.42,1.43-0.6,2.24-0.21c0.28,0.13,0.66,0.07,1.13,0.11c0.51,0.36,1.14,0.79,1.82,1.27c0.82-0.06,1.71-0.13,2.61-0.2
				c0.71,0.6,1.38,1.2,2.09,1.73c0.78,0.58,1.62,1.1,2.42,1.65c0.35,0.24,2.4,2.9,2.56,3.29c0.05,0.13,0.1,0.28,0.19,0.38
				c0.82,0.92,1.28,2.01,1.63,3.19c0.31,1.05,0.8,2.05,1.18,3.08c0.14,0.39,0.2,0.81,0.32,1.21c0.17,0.57,0.34,1.14,0.54,1.69
				c0.45,1.27,0.88,2.53,0.79,3.91c-0.01,0.22,0.02,0.45,0.04,0.67c0.04,0.41,0.08,0.83,0.14,1.24c0.05,0.39,0.11,0.77,0.12,1.15
				c0,0.67,0,1.34,0,2.02c0,0.54-0.03,1.07-0.02,1.61c0.02,1.21,0.07,2.42,0.08,3.63c0,1.21-0.03,2.42-0.06,3.62
				c-0.03,1.19-0.09,2.37-0.09,3.56c-0.01,2.09,0.03,4.17,0.02,6.26c-0.01,2.45-0.12,4.89-0.06,7.34c0.03,1.34-0.12,2.68-0.08,4.01
				c0.05,1.92,0.19,3.83,0.24,5.75c0.04,1.49,0,2.99,0.01,4.49c0.01,0.87,0.07,1.74,0.08,2.62c0.01,0.62-0.01,1.24-0.05,1.85
				c-0.07,1.09-0.2,2.17-0.24,3.25c-0.06,1.35-0.04,2.7-0.08,4.05c-0.04,1.62,0.04,3.24-0.2,4.85c-0.12,0.85-0.04,1.75,0.06,2.61
				c0.06,0.5-0.01,0.95-0.14,1.4c-0.24,0.84-0.47,1.69-0.8,2.49c-0.35,0.82-0.81,1.6-1.23,2.39c-0.16,0.3-0.35,0.57-0.52,0.86
				C485.03,226.87,484.98,226.87,484.94,226.87z M454.86,151.72c-0.03,0.2-0.07,0.36-0.06,0.52c0.02,1.81,0.03,3.61,0.09,5.41
				c0.05,1.66,0.17,3.33,0.25,4.99c0.08,1.58,0.14,3.15,0.22,4.73c0.1,1.86,0.21,3.71,0.3,5.57c0.13,2.42,0.2,4.84,0.39,7.26
				c0.31,3.94-2.26,7.87-1.91,11.8c0.17,1.97,0.35,3.93,0.52,5.9c0.07,0.78,0.1,1.56,0.15,2.34c0.09,1.29,0.19,2.58,0.26,3.86
				c0.07,1.27,0.15,2.54,0.18,3.81c0.03,1.04-0.02,2.09,0.01,3.13c0.02,0.81,0.12,1.62,0.19,2.5c3.05,0,9,0,12.17,0
				c0.62-0.61,1.32-1.29,1.84-1.8c0.21-1.08,0.37-1.9,0.51-2.73c0.04-0.25,0.05-0.51,0.06-0.76c0.06-1.72,0.13-3.44,0.16-5.17
				c0.04-2.46,0.07-4.91,0.05-7.37c-0.02-1.86-0.16-3.72-0.17-5.58c-0.01-2.82,0.05-5.63,0.07-8.45c0.01-0.79,0-1.58,0.01-2.37
				c0.02-1.41,0.05-2.82,0.05-4.23c0-1.01-0.07-2.03-0.07-3.04c0.01-1.49,0.08-2.99,0.1-4.48c0.03-2,0.05-4.01,0.04-6.01
				c-0.01-1.85,0.24-3.73-0.49-5.53c-0.07-0.18-0.07-0.39-0.13-0.58c-0.17-0.62-0.36-1.24-0.53-1.86c-0.29-1.06-1.07-1.5-2.08-1.55
				c-1.24-0.06-2.48-0.04-3.73-0.08c-1.61-0.06-3.21-0.12-4.81-0.22C457.31,151.68,456.11,151.55,454.86,151.72z"/>
			<path class="st0" d="M482.64,100.64c0.48,0.66,0.96,1.33,1.49,2.04c0,1.04-0.01,2.14,0,3.23c0.01,0.82,0.07,1.65,0.04,2.47
				c-0.03,0.81-0.17,1.61-0.2,2.42c-0.03,0.9,0.03,1.81-0.01,2.71c-0.04,1.11,0.07,2.26-0.22,3.32c-0.08,0.28-0.08,0.69-0.05,1.02
				c0.08,0.89,0.14,1.76-0.01,2.66c-0.06,0.34,0.03,0.76,0.06,1.14c0.05,0.78,0.14,1.55,0.14,2.33c0,0.85-0.34,1.35-0.79,1.34
				c-0.35-0.01-0.71,0-1.21,0c-0.52-0.65-1.25-0.59-1.99-0.64c-1.79-0.14-3.57-0.36-5.36-0.53c-0.78-0.07-1.56-0.1-2.34-0.16
				c-0.36-0.03-0.71-0.11-1.07-0.14c-0.65-0.05-1.3-0.09-1.95-0.13c-0.67-0.04-1.34-0.09-2.01-0.13c-1.03-0.06-2.06-0.12-3.09-0.16
				c-1.47-0.06-2.95-0.06-4.42-0.15c-1.32-0.08-2.65-0.32-3.97-0.36c-1.39-0.05-2.77,0.06-4.16,0.1c-0.13,0-0.25,0.04-0.38,0.04
				c-1.43-0.07-2.86-0.14-4.29-0.23c-2.36-0.14-4.71-0.34-7.07-0.43c-1.62-0.06-3.24,0.1-4.86,0.07c-1.83-0.04-3.66-0.2-5.49-0.29
				c-1.37-0.07-2.74-0.12-4.1-0.15c-1.28-0.03-2.57-0.08-3.85-0.03c-2.02,0.08-4.04,0.21-6.05,0.38c-1.45,0.13-2.9,0.4-4.35,0.55
				c-1.2,0.12-2.4,0.17-3.6,0.21c-2.11,0.08-4.21,0.21-6.32,0.18c-1.47-0.02-2.94-0.24-4.41-0.4c-1.22-0.13-2.43-0.29-3.65-0.46
				c-0.48-0.07-0.96-0.23-1.44-0.28c-1.79-0.19-3.57-0.4-5.36-0.5c-2.4-0.14-4.79-0.24-7.19-0.26c-1.83-0.01-3.65,0.18-5.48,0.17
				c-1.41-0.01-2.82-0.23-4.23-0.28c-1.68-0.06-3.37-0.04-5.05-0.05c-0.53-0.01-1.05-0.03-1.58-0.04c-2.19-0.02-4.38,0.03-6.57-0.07
				c-3.16-0.16-6.31,0.18-9.46,0.18c-1.28,0-2.56-0.05-3.84,0c-1.91,0.08-3.82,0.21-5.72,0.34c-1.15,0.08-2.29,0.17-3.45-0.12
				c-1.31-0.34-2.64-0.3-3.97-0.45c-0.84-0.1-1.68-0.28-2.52-0.35c-1.24-0.11-2.48-0.07-3.71,0.34c-1.39,0.45-2.89-0.11-4.29,0.26
				c-0.33,0.09-0.7-0.19-1.02,0c-0.58,0.34-0.91,0.63-0.93-0.52c-0.01-0.61,0.04-0.79,0-1.41c0.25-1.31,0.15-2.69,0.2-4.05
				c0.04-1.29,0.09-2.58,0.08-3.87c0-0.73-0.12-1.46-0.18-2.24c0.3-0.67,0.28-1.44,0.2-2.3c-0.13-1.35-0.14-2.71-0.01-4.09
				c0.05-0.57-0.09-1.2-0.16-1.97c0.21-0.82,0.11-2.27,1.07-2.55c0.77,0.52,1.66,0.13,2.55-0.15c0.77-0.23,1.55-0.3,2.31-0.53
				c0.83-0.25,1.65-0.65,2.47-0.93c0.31-0.1,0.63-0.13,0.94-0.06c0.69,0.14,1.37,0.42,2.05,0.54c0.9,0.16,1.8,0.24,2.71,0.33
				c1.28,0.13,2.56,0.27,3.84,0.33c0.82,0.04,1.64-0.01,2.46-0.09c1.13-0.12,2.26-0.32,3.39-0.46c0.25-0.03,0.5,0.06,0.75,0.06
				c0.9-0.01,1.81-0.04,2.71-0.05c1.26-0.01,2.52,0.03,3.78,0c1.22-0.03,2.44-0.17,3.66-0.19c1.6-0.04,3.19-0.12,4.79,0.06
				c1.67,0.19,3.36-0.06,5.05-0.1c0.4-0.01,0.8,0.02,1.19,0.04c0.12,0.01,0.25,0.05,0.37,0.05c1.33-0.03,2.65-0.1,3.98-0.08
				c1.55,0.03,3.11,0.18,4.66,0.2c2.08,0.02,4.17-0.01,6.25-0.05c1.32-0.03,2.65-0.12,3.97-0.15c0.92-0.02,1.84-0.02,2.77,0.04
				c1.09,0.08,2.18,0.25,3.27,0.37c0.88,0.1,1.77,0.17,2.65,0.29c0.94,0.13,1.88,0.29,2.82,0.44c0.23,0.03,0.46,0.03,0.69,0.06
				c0.92,0.11,1.84,0.26,2.76,0.35c1.09,0.11,2.18,0.22,3.27,0.25c1.91,0.04,3.83,0.08,5.74,0.01c1.98-0.07,3.95-0.24,5.93-0.42
				c1.28-0.12,2.56-0.4,3.84-0.49c2.23-0.15,4.46-0.26,6.69-0.3c1.28-0.02,2.57,0.17,3.85,0.22c1.47,0.06,2.95,0.04,4.42,0.1
				c0.86,0.03,1.72,0.16,2.58,0.2c1.03,0.05,2.05,0.05,3.08,0.07c0.92,0.02,1.85,0.05,2.77,0.05c0.99,0,1.98-0.07,2.97-0.04
				c1.17,0.04,2.35,0.17,3.52,0.22c1.85,0.09,3.7,0.17,5.55,0.22c1.56,0.04,3.12-0.01,4.68,0.07c1.45,0.08,2.9,0.32,4.34,0.42
				c0.97,0.07,1.94-0.03,2.9,0.01c1.89,0.07,3.79,0.19,5.68,0.28c1.11,0.05,2.23,0.03,3.34,0.13c1.47,0.14,2.94,0.37,4.41,0.54
				c0.33,0.04,0.67-0.02,1.01-0.02c0.25,0.01,0.5,0.01,0.75,0.08c0.84,0.23,1.67,0.21,2.51-0.03c0.48-0.14,0.99,0,1.49,0.01
				C482.64,100.39,482.64,100.51,482.64,100.64z"/>
			<path class="st0" d="M262.56,137.12c-0.04-0.45-0.11-0.75-0.1-1.05c0.04-1.55,0.12-3.09,0.15-4.64c0.01-0.55-0.1-1.1-0.16-1.74
				c1.1-1.27,1.11-1.27,2.71-0.66c0.48-0.07,0.93-0.14,1.49-0.22c0.31-0.34,0.8-0.49,1.35-0.22c0.68,0.34,1.43,0.33,2.15,0.34
				c1.15,0.02,2.3,0.08,3.44-0.17c0.22-0.05,0.45-0.02,0.67-0.01c0.99,0.04,1.94-0.14,2.91-0.3c0.52-0.08,1.01-0.32,1.58-0.24
				c0.61,0.08,1.09,0.2,1.37,0.79c0.04,0.09,0.17,0.14,0.31,0.26c1.39,0,2.82-0.02,4.26,0.01c1.41,0.03,2.81,0.15,4.22,0.15
				c0.78,0,1.59-0.05,2.35-0.24c1.05-0.26,2.06-0.08,3.07,0.05c1.38,0.17,2.69,0.69,3.99,1.16c2.34,0.86,4.29,2.3,5.8,4.32
				c0.47,0.63,0.9,1.28,1.33,1.95c0.52,0.82,1.18,1.62,1.94,2.21c1.03,0.8,1.64,1.79,2.07,2.97c0.35,0.96,0.52,1.93,0.42,2.96
				c-0.08,0.87,0.02,1.75,0,2.62c-0.05,1.6-0.17,3.21-0.18,4.81c-0.01,2.22,0.04,4.45,0.08,6.67c0.02,1.29,0.05,2.59,0.08,3.88
				c0.04,1.63,0.1,3.26,0.13,4.89c0.02,1.38-0.01,2.76,0,4.14c0.01,1.21,0.04,2.43,0.09,3.64c0.08,2.1,0.22,4.2-0.13,6.28
				c-0.13,0.76-0.42,1.49-0.69,2.22c-0.36,0.94-0.78,1.86-1.25,2.95c0.1,1.03-0.48,1.87-1.46,2.51c-1.09,0.72-2.04,1.58-2.78,2.53
				c-0.61,0.31-1.15,0.55-1.65,0.86c-0.95,0.58-1.99,0.88-3.08,1.07c-1.11,0.19-2.2,0.49-3.29,0.75c-1.07,0.26-2.11,0.63-3.19,0.8
				c-1.33,0.21-2.69,0.32-4.04,0.38c-1.97,0.09-3.95-0.03-5.9,0.41c-0.74,0.17-1.47,0.39-2.21,0.58c-0.35,0.09-0.7,0.15-1.15,0.25
				c0,0.68-0.01,1.34,0,2.01c0.04,1.66,0.09,3.32,0.14,4.98c0.05,1.66,0.15,3.32,0.17,4.98c0.02,1.95-0.03,3.9-0.04,5.85
				c-0.01,3.16-0.02,6.32-0.02,9.48c0,0.31,0.05,0.62,0.11,0.92c0.28,1.32,0.14,1.97-1.54,2.74c-0.62,0-1.24,0.01-1.85,0
				c-0.65-0.02-1.3-0.07-1.94-0.11c-0.89-0.06-1.79-0.12-2.68-0.17c-0.45-0.03-0.9-0.09-1.34-0.09c-1.73-0.02-3.48-0.19-5.15,0.29
				c-0.85-0.36-1.65-0.75-2.53-0.56c-0.07-1.17-0.15-2.27-0.19-3.38c-0.03-0.82-0.01-1.63-0.01-2.45c-0.02-2.14-0.05-4.29-0.06-6.43
				c0-0.34,0.04-0.67,0.06-1.01c0.17-3.75,0.02-7.5-0.14-11.24c-0.11-2.53-0.19-5.07-0.25-7.6c-0.05-1.91-0.03-3.83-0.07-5.75
				c-0.03-1.49-0.11-2.99-0.15-4.48c-0.07-2.33-0.12-4.67-0.19-7c-0.11-3.63-0.02-7.25,0.15-10.88c0.09-1.82,0.06-3.65,0.1-5.48
				c0.06-2.31,0.14-4.61,0.2-6.92c0.02-0.98,0-1.97,0.02-2.96c0.02-1.01,0.07-2.02,0.1-3.03c0.04-1.35,0.05-2.7,0.09-4.05
				c0.06-2.28,0.12-4.55,0.2-6.83C262.43,137.56,262.53,137.26,262.56,137.12z M279.46,146.38c-0.05,1.09-0.13,2.09-0.14,3.09
				c-0.02,1.07,0.05,2.14,0.02,3.21c-0.03,1.12-0.14,2.25-0.18,3.37c-0.06,1.52-0.09,3.03-0.13,4.55c-0.04,1.41-0.12,2.82-0.14,4.23
				c-0.04,1.92-0.05,3.83-0.07,5.75c-0.03,2.62-0.06,5.25-0.08,7.87c0,0.21,0.07,0.43,0.1,0.66c0.16,0.02,0.29,0.07,0.38,0.04
				c0.88-0.37,1.81-0.13,2.66-0.05c1.68,0.14,3.33-0.07,4.96-0.26c1.49-0.18,2.93-0.67,4.29-1c0.25-0.41,0.46-0.71,0.63-1.03
				c0.17-0.32,0.32-0.65,0.45-0.99c0.46-1.16,0.23-2.37,0.24-3.57c0-1.01,0-2.01,0.03-3.02c0.02-0.73,0.13-1.46,0.11-2.18
				c-0.07-2.19-0.21-4.37-0.27-6.56c-0.04-1.23,0.04-2.46,0.04-3.7c0.01-1.4-0.01-2.8,0-4.2c0.01-1,0.04-2.01,0.07-3.01
				c0-0.06,0.01-0.11,0.02-0.17c0.23-0.78-0.08-1.37-0.72-1.95c-0.65,0-1.38,0-2.11,0c-0.31-0.32-0.62-0.62-0.98-0.69
				c-0.85-0.15-1.72-0.21-2.59-0.25c-1.26-0.06-2.51,0.11-3.77-0.11C281.38,146.26,280.43,146.38,279.46,146.38z"/>
			<g>
				<path class="st0" d="M282.68,106.6c0.17,0,0.3,0.01,0.43,0c0.53-0.05,1.78-0.13,2.31-0.17c0.22-0.02,1.5,0.04,1.72,0.07
					c0.18,0.02,0.36,0.05,0.58,0.08c0.02-0.13,0.04-0.23,0.04-0.32c-0.02-0.66-0.05-2.13-0.07-2.79c-0.02-0.43-0.05-0.86-0.05-1.29
					c-0.02-1.08-0.12-2.15-0.03-3.23c0.04-0.51,0.1-1.03,0.01-1.55c-0.09-0.52,0.12-0.75,0.65-0.74c0.45,0.01,0.9,0.06,1.35,0.1
					c0.25,0.02,0.5,0.05,0.76,0.07c0.05,0,0.3-0.03,0.4-0.01c0.07,0.01,0.15,0.04,0.22,0.04c0.33,0.01,0.66,0.01,0.99,0.02
					c0.08,0,0.17,0.05,0.22,0.01c0.28-0.17,0.57-0.04,0.83,0.01c0.33,0.06,0.4,0.2,0.36,0.51c-0.07,0.5-0.09,1.01-0.11,1.52
					c-0.02,0.42-0.03,0.84-0.03,1.26c0,0.35,0.03,0.71,0.04,1.06c0.01,0.41,0.02,0.82,0.03,1.22c0.04,0.95,0.06,1.9,0.12,2.84
					c0.04,0.66,0.12,1.31,0.11,1.97c-0.01,0.41,0.06,0.82,0.08,1.22c0.03,0.43,0.05,0.86,0.07,1.29c0.01,0.26,0.02,0.53,0.03,0.79
					c0.03,0.82,0.06,1.63,0.09,2.45c0.02,0.65,0.09,1.3,0.06,1.95c-0.03,0.85-0.06,1.7,0.01,2.54c0.02,0.24-0.01,0.49-0.02,0.73
					c-0.01,0.49-0.04,0.97,0.07,1.45c0.06,0.29,0.1,0.58,0.13,0.88c0.03,0.25-0.03,0.44-0.28,0.58c-0.21,0.12-0.39,0.2-0.64,0.18
					c-0.72-0.06-0.4-0.1-1.13-0.14c-0.19-0.01-0.37,0-0.56,0c-0.17,0-0.35-0.01-0.52-0.02c-0.02,0-0.05-0.01-0.07-0.01
					c-0.35,0.11-0.7-0.01-1.05-0.01c-0.25,0-0.49-0.08-0.74-0.12c-0.2-0.04-0.38-0.11-0.6,0c-0.25,0.13-0.38,0.01-0.36-0.29
					c0.01-0.1,0-0.2-0.01-0.3c-0.01-0.19-0.06-0.37-0.04-0.56c0.06-0.69,0.01-1.39,0-2.08c-0.01-0.56,0.01-1.12,0.01-1.68
					c0-0.51-0.04-1.02,0.01-1.52c0.07-0.7-0.08-2.74-0.04-3.44c-0.05-0.02-0.09-0.05-0.13-0.04c-0.46,0.05-1.95-0.07-2.4-0.13
					c-0.17-0.02-1.08-0.02-1.25,0c-0.33,0.03-0.66,0.09-1.03,0.14c0,0.19-0.01,0.38,0,0.58c0.05,0.96,0.09,3.29,0.15,4.24
					c0.08,1.22,0.12,2.45,0.14,3.67c0.01,0.35,0.07,0.7,0.13,1.05c0.05,0.25-0.04,0.5-0.29,0.59c-0.16,0.06-0.35,0.08-0.52,0.08
					c-0.45,0.01-0.9-0.01-1.36-0.02c-0.07,0-0.14,0.02-0.2,0c-0.35-0.09-0.7-0.12-1.07-0.09c-0.34,0.03,0.04,0-0.3-0.01
					c-0.44,0-0.88,0.01-1.32,0c-0.33-0.01-0.66-0.04-0.99-0.06c-0.17-0.01-0.2-0.11-0.19-0.25c0.01-0.33,0.03-0.66,0.03-1
					c0-0.91-0.01-1.81-0.03-2.72c-0.01-0.59-0.07-1.18-0.1-1.78c-0.04-0.93-0.06-1.85-0.1-2.78c-0.02-0.41-0.07-0.81-0.1-1.22
					c-0.04-0.51-0.08-1.01-0.12-1.52c-0.06-0.83-0.09-1.66-0.18-2.48c-0.06-0.59-0.05-1.19-0.09-1.78c-0.04-0.55-0.08-1.1-0.11-1.65
					c-0.05-0.86-0.09-1.72-0.13-2.58c-0.01-0.17,0-0.33-0.02-0.5c-0.04-0.56,0.1-1.09,0.21-1.63c0.14-0.67,0.25-1.35,0.23-2.03
					c-0.01-0.31,0.07-0.41,0.39-0.46c0.07-0.01,0.13-0.03,0.2-0.02c0.49,0.08,0.97-0.03,1.46-0.04c0.16,0,0.29,0.11,0.48,0.07
					c0.25-0.05,0.52-0.03,0.77-0.14c0.07-0.03,0.17,0.01,0.26,0.02c0.1,0.01,0.2,0.04,0.29,0.03c0.33-0.03,0.2-0.03,0.53,0.04
					c0.23,0.05,0.2,0.01,0.43-0.02c0.32-0.04,0.63-0.02,0.94,0c0.28,0.02,0.33,0.07,0.32,0.35c0,0.13-0.05,0.26-0.07,0.39
					c-0.14,0.77-0.29,1.54-0.41,2.31c-0.05,0.34-0.08,0.68-0.07,1.02c0.02,0.87,0.04,1.74,0.09,2.61c0.04,0.65,0.11,2.1,0.17,2.75
					C282.72,106.31,282.69,106.42,282.68,106.6z"/>
				<path class="st0" d="M296.33,120.46c0.15-0.18,0.16-0.42,0.13-0.67c-0.01-0.07-0.02-0.13-0.02-0.2
					c-0.02-0.56-0.05-1.11-0.07-1.67c0-0.12,0.03-0.24,0.03-0.36c-0.02-0.25-0.05-0.5-0.07-0.75c-0.01-0.07-0.02-0.14,0-0.2
					c0.17-0.33,0.01-0.67,0.02-1c0.01-0.21,0.06-0.41,0.07-0.62c0.03-0.62,0.04-1.24,0.06-1.86c0.01-0.54,0.05-1.08,0.03-1.63
					c-0.04-0.94,0.06-1.88-0.06-2.82c-0.07-0.51-0.06-1.03-0.09-1.55c-0.05-0.83-0.1-1.65-0.15-2.48c-0.06-0.94-0.14-1.87-0.19-2.81
					c-0.05-0.98-0.08-1.96-0.13-2.94c-0.02-0.44-0.03-0.88-0.07-1.32c-0.03-0.3,0.09-0.49,0.32-0.71c0.22-0.21,0.42-0.22,0.69-0.21
					c0.45,0.02,0.9-0.04,1.36-0.04c0.35,0,0.71,0.03,1.05,0.08c0.94,0.12,1.87,0.33,2.82,0.32c0.31,0,0.62,0.06,0.92,0.07
					c0.52,0.02,1.04,0.02,1.55,0.03c0.18,0,0.35,0,0.52,0.02c0.16,0.01,0.32,0.05,0.49,0.08c0.3,0.05,0.6,0.03,0.9,0.16
					c0.28,0.12,0.63,0.08,0.95,0.11c0.16,0.01,0.33,0.02,0.5,0.04c0.38,0.04,0.77,0.08,1.15,0.14c0.38,0.07,0.4,0.11,0.43,0.5
					c0.03,0.48,0.07-0.05,0.09,0.43c0.01,0.2-0.03,0.4-0.02,0.59c0.01,0.26,0.06,0.53,0.08,0.79c0.01,0.15,0.02,0.31,0.01,0.46
					c-0.01,0.17-0.01,0.33,0.09,0.48c0.04,0.07,0.07,0.18,0.04,0.25c-0.15,0.47-0.06-0.07-0.06,0.76c0,0.31-0.06,0.59-0.27,0.83
					c-0.07,0.09-0.09,0.22-0.15,0.35c-0.05,0-0.13,0.02-0.2,0.01c-0.68-0.02-1.37-0.02-2.05-0.07c-0.38-0.03-0.76-0.15-1.14-0.22
					c-0.46-0.09-0.93-0.19-1.39-0.27c-0.08-0.01-0.17-0.04-0.23-0.01c-0.27,0.14-2.22,0-2.43-0.13c-0.2-0.13-0.41-0.16-0.67-0.12
					c0.05,0.81,0.1,3.81,0.16,4.61c0.3,0.09,2.3,0.04,2.56,0.03c0.63-0.02,1.26-0.02,1.89-0.03c0.04,0,0.09,0.01,0.13,0.03
					c0.16,0.07,0.32,0.17,0.49,0.2c0.17,0.03,0.35-0.01,0.57-0.03c0.03,0.15,0.08,0.31,0.09,0.47c0.04,0.54,0.08,0.06,0.1,0.6
					c0.01,0.24,0.03,0.48,0.12,0.71c0.04,0.12,0.02,0.26,0.03,0.39c0.02,0.33-0.1,0.14,0.04,0.48c0.07,0.17,0,0.39-0.01,0.59
					c-0.01,0.47-0.01,0.95-0.13,1.41c-0.03,0.11,0.01,0.24,0.02,0.37c-0.27,0.34-0.65,0.31-1.02,0.24
					c-0.14-0.03-0.26-0.07-0.42-0.04c-0.15,0.03-0.32-0.05-0.47-0.12c-0.42-0.17-0.85-0.05-1.28-0.08c-0.19-0.01-2.11,0-2.29,0.02
					c-0.2,0.02-0.25,0.08-0.25,0.28c-0.01,0.6-0.02,3.57-0.02,4.17c0,0.25,0.04,0.29,0.29,0.29c0.17,0,2.06-0.01,2.23-0.02
					c0.65-0.07,1.3-0.09,1.95,0.02c0.11,0.02,0.22,0.01,0.33,0.01c0.29,0,0.57,0,0.86,0.05c0.29,0.05,0.59,0.02,0.89,0.02
					c0.46,0.01,0.93-0.08,1.38,0.08c0.03,0.01,0.07,0.02,0.1,0.02c0.34,0.01,0.33,0.01,0.38,0.32c0.04,0.29,0.09,0.58,0,0.88
					c-0.04,0.14,0,0.32,0.03,0.48c0.02,0.12-0.01,0.23-0.01,0.35c-0.01,0.14,0.08,0.29,0.14,0.43c0.02,0.06,0.08,0.1,0.14,0.18
					c-0.3,0.14-0.29,0.36-0.26,0.63c0.04,0.35,0,0.11-0.03,0.46c-0.01,0.13-0.07,0.25-0.12,0.4c0.13,0.13,0.12,0.31,0.1,0.52
					c-0.04,0.42-0.23,0.07-0.06,0.55c-0.15,0.06-0.29,0.13-0.43,0.17c-0.42,0.1-0.84,0.02-1.25,0.01c-0.67-0.02-1.35-0.04-2.02-0.07
					c-0.56-0.03-1.12-0.08-1.68-0.09c-0.27-0.01-0.55,0.04-0.83,0.04c-0.67,0.02-1.35,0.03-2.02,0.04c-0.15,0-0.31-0.02-0.46-0.04
					c-0.42-0.04-0.84-0.08-1.25-0.12c-0.38-0.04-0.76-0.1-1.15-0.13c-0.36-0.03-0.73-0.03-1.09-0.05c-0.14-0.01-0.29,0-0.43-0.01
					c-0.31-0.02-0.44-0.12-0.5-0.43c-0.05-0.25-0.25-0.43-0.26-0.69C296.42,120.78,296.37,120.63,296.33,120.46z"/>
				<path class="st0" d="M275.08,101.84c-0.36-0.03-2.33,0.24-2.68,0.17c-0.42-0.08-0.85-0.04-1.28-0.06
					c-0.17-0.01-0.27,0.08-0.31,0.23c-0.02,0.05-0.04,0.11-0.04,0.16c-0.02,0.35-0.06,2.05-0.03,2.4c0.02,0.21,0,0.41,0.01,0.61
					c0.05,0.89,0.11,1.78,0.16,2.67c0.03,0.59,0.03,1.17,0.05,1.76c0.01,0.21,0.04,0.42,0.05,0.63c0.06,1.03,0.11,2.07,0.18,3.1
					c0.05,0.79,0.11,1.58,0.19,2.37c0.1,1,0.23,2,0.33,2.99c0.06,0.58,0.24,1.15,0.14,1.74c-0.02,0.14-0.03,0.27-0.05,0.44
					c-0.13-0.05-0.22-0.09-0.32-0.13c-0.25,0.27-0.57,0.33-0.93,0.32c-0.57,0,0.55,0-0.01-0.03c-0.31-0.02-0.62,0.09-0.93-0.02
					c-0.09-0.03-0.2-0.02-0.3,0.01c-0.26,0.09-0.52,0.03-0.78,0c-0.21-0.02-0.41-0.01-0.62-0.01c-0.06,0-0.15,0-0.19-0.04
					c-0.13-0.11-0.26-0.21-0.44-0.17c-0.15,0.03-0.3,0.05-0.48,0.08c-0.13-0.08-0.09-0.25-0.06-0.37c0.1-0.33,0.03-0.66,0.01-0.99
					c-0.03-0.49-0.08-0.98-0.14-1.47c-0.05-0.49-0.12-0.98-0.17-1.48c-0.06-0.63-0.11-1.25-0.16-1.88
					c-0.06-0.79-0.11-1.58-0.16-2.38c-0.03-0.42-0.04-0.84-0.06-1.26c-0.01-0.21-0.03-0.42-0.03-0.63
					c-0.03-0.61-0.05-1.21-0.08-1.82c-0.06-1.06-0.12-2.12-0.18-3.17c-0.04-0.66,0-2.66,0.07-3.32c0.01-0.12,0.02-0.24,0.04-0.39
					c-0.16-0.02-0.29-0.01-0.41-0.04c-0.58-0.15-1.18-0.11-1.78-0.13c-0.46-0.02-0.92,0.01-1.39,0.04
					c-0.38,0.02-0.77,0.07-1.15,0.12c-0.15,0.02-0.29,0.09-0.45,0.15c-0.08-0.05-0.18-0.09-0.27-0.16c-0.07-0.05-0.16-0.14-0.15-0.2
					c0.03-0.25-0.06-0.49-0.05-0.75c0.02-0.66,0.07-1.31-0.06-1.97c-0.07-0.38-0.03-0.14-0.05-0.54c-0.01-0.3-0.02-0.59-0.04-0.89
					c-0.02-0.43-0.04-0.16-0.05-0.59c0-0.23,0.1-0.3,0.34-0.32c0.45-0.04,0.9-0.09,1.35-0.13c0.01,0,0.02,0,0.03,0
					c0.61-0.02,1.21-0.07,1.82-0.05c0.67,0.02,1.34,0.12,2.01,0.16c0.42,0.03,0.84,0.02,1.26,0.02c0.32,0,0.64-0.04,0.96-0.04
					c0.56-0.01,1.12-0.01,1.68,0c0.39,0.01,0.77,0.04,1.16,0.05c0.33,0.01,0.66,0,0.99,0c0.61-0.01,1.22-0.02,1.82-0.05
					c0.14-0.01,0.27-0.07,0.41-0.1c0.38-0.07,0.74,0.02,1.1,0.14c0.11,0.03,0.15,0.1,0.18,0.2c0.11,0.37,0.09,0.21,0.09,0.42
					c0,0.16,0.01,0.32,0.01,0.48c0.01,0.5-0.09,0.36,0.01,0.86c0.03,0.15-0.04,0.32-0.05,0.49c-0.02,0.44-0.05,0.88-0.03,1.33
					c0.01,0.23-0.04,0.44-0.09,0.65C275.04,101.3,275.08,101.56,275.08,101.84z"/>
			</g>
		</g>
		<g>
			<polygon class="st0" points="136.8,58.86 127.69,82.06 121.49,78.3 118.82,72.34 124.65,58.86 130.48,56.92 			"/>
			<polygon class="st0" points="199.53,95.54 197.71,94.15 180.34,109.63 185.2,113.52 			"/>
			<polygon class="st0" points="196.98,93.54 192.49,89.53 177.91,108.05 179.43,109.09 			"/>
			<polygon class="st0" points="191.52,88.86 189.57,87.22 172.27,103.83 177.12,107.45 			"/>
			<path class="st0" d="M188.3,86.31c-0.12-0.24-6.41-4.49-6.41-4.49l-12.12,20.34l1.58,0.97L188.3,86.31z"/>
			<polygon class="st0" points="180.34,81.09 178.58,79.94 163.34,98.58 168.8,101.74 			"/>
			<polygon class="st0" points="177.12,79.03 171.54,75.99 160.79,97.34 162.61,98.09 			"/>
			<polygon class="st0" points="170.26,75.02 168.26,73.98 155.14,94.15 159.88,96.52 			"/>
			<polygon class="st0" points="167.16,73.32 162.18,70.71 152.65,92.93 153.86,93.54 			"/>
			<polygon class="st0" points="123.07,177.89 106.55,176.44 105.83,161.62 107.16,158.19 105.83,144.86 103.88,145.71 
				101.21,182.27 104,188.83 118.7,186.03 121.86,189.92 121.37,182.63 			"/>
			<polygon class="st0" points="104.13,189.92 95.87,213.6 95.87,223.44 100,229.39 121.13,236.44 128.9,239.35 136.31,243.73 
				142.02,247.01 129.39,235.71 109.83,214.58 103.4,201.46 			"/>
			<polygon class="st0" points="105.95,189.92 104.98,199.76 112.14,214.33 130.24,234.62 145.79,248.71 158.9,245.55 158.9,241.9 
				138.74,227.21 114.69,209.6 107.65,199.64 117.97,187.13 			"/>
			<polygon class="st0" points="93.13,247.61 94.35,252.71 101.76,257.82 118.28,261.82 180.71,276.64 192.61,275.43 196.98,272.03 
				196.98,269.29 176.4,271.42 133.28,261.64 105.28,254.11 			"/>
			<path class="st0" d="M173.45,228.99l3.67-2.51l5.18,1.26l11.5,3.48l3.97,3.6l0.89,8.1l-1.68,8.75l-2.04,0.89l-15.3,3.08
				c0,0-4.13-5.06-4.13-5.04c0,0.02-3.4-10.43-3.4-10.43l3.16-8.26l-0.32-1.46L173.45,228.99z"/>
			<polygon class="st0" points="163.98,237.65 170.89,240.24 174.05,250.59 177.93,255.63 170.96,255.23 166.44,248.71 			"/>
			<polygon class="st0" points="146.84,249.48 159.88,246.64 159.88,241.38 115.18,208.66 109.02,199.27 118.94,187.94 
				121.58,191.5 122.06,209.88 126.6,215.55 149.67,230.85 162.63,237.33 165.14,248.26 169.43,254.9 156.39,254.01 			"/>
			<polygon class="st0" points="126.47,187.67 123.86,183.24 123.5,179.47 130.81,139.59 131.94,129.07 138.5,86.31 142.55,61.13 
				143.36,65.34 143.36,68.5 139.07,91.82 135.26,118.86 132.26,136.52 131.37,141.54 129.43,158.54 125.71,181.05 126.6,185.1 
				127.32,186.4 127.89,187.67 			"/>
			<polygon class="st0" points="124.73,186.44 124.45,187.67 125.54,189.76 127.2,190.24 129.27,189.43 129.55,187.33 
				128.78,186.15 127.57,185.55 128.46,187.94 127.57,188.87 126.39,188.7 125.58,187.9 125.75,187.29 			"/>
			<polygon class="st0" points="123.07,176.98 114.21,176.25 114.69,170.91 118.64,165.93 125.44,164.29 			"/>
			<polygon class="st0" points="113.6,176.13 112.45,176.13 113.6,166.05 116.76,160.46 124.96,158.19 126.35,157.85 125.44,163.56 
				117.97,165.02 114.21,169.94 			"/>
			<polygon class="st0" points="129.55,162.04 136.43,160.04 141.41,157.85 142.45,158.19 140.62,153.91 138.5,153.91 
				130.42,156.52 			"/>
			<path class="st0" d="M129.55,163.26c0,0,6.76-1.94,6.94-2c0.18-0.06,4.8-2.43,4.8-2.43l1.64,0.97l-0.91,13.66l0.91,5.22
				l-0.49,7.53h-8.44l-2.06-6.92l-4.94-1.21L129.55,163.26z"/>
			<polygon class="st0" points="117.85,159.25 125.44,157.37 124.83,153.12 119.4,146.44 112.75,145.16 108.74,144.86 
				106.68,144.55 107.77,157.85 106.68,161.68 107.1,175.59 107.53,161.25 109.02,157.85 107.95,146.5 113.42,146.44 118.52,147.29 
				123.5,153.42 124.17,156.64 			"/>
			<polygon class="st0" points="145.26,58.86 147.85,56.92 148.7,56.72 148.7,59.79 145.75,60.56 145.02,59.47 			"/>
			<polygon class="st0" points="146.07,60.93 145.87,62.06 147.69,63.19 147.85,61.86 148.7,61.13 148.7,60.36 			"/>
			<polygon class="st0" points="141.54,59.47 142.26,60.36 143.36,59.71 142.83,58.21 			"/>
			<path class="st0" d="M143.72,59.51h0.89c0,0-0.24-2.92-0.45-3.04c-0.2-0.12-1.54-4.13-1.54-4.13l-0.73-3.56l-0.97-4.01
				l-1.05,0.45l0.89,3.64l-0.2,0.81l0.4,4.21l1.48,3.2l0.91,0.93L143.72,59.51z"/>
			<path class="st0" d="M145.02,58.21l2.06-1.5l1.26-0.45l-0.77-5.79l1.66-3.93l0.2-2.79l-1.17-0.93l-2.63-0.49l-1.94,1.38
				c0,0-1.21,4.41-1.23,4.53c-0.02,0.12,0.34,3.44,0.34,3.44l1.82,3.93L145.02,58.21z"/>
			<path class="st0" d="M142.99,61.13l0.81-0.97c0,0,0.97-0.08,1.05,0c0.08,0.08,0.69,0.97,0.69,0.97l-0.24,2.47l-0.69,8.06
				l0.93,19.47l1.09,23.08l0.77,55.47l0.45,5.91l-1.66-0.57l-0.61-23.85l-0.16,23.44l-1.38-0.12l0.57-36.56l-1.26-32.07l0.32-11.26
				V86.6l0.12-16.11l0.04-3.04l-0.49-4.25L142.99,61.13z"/>
			<polygon class="st0" points="137.41,58.98 140.52,60.36 133.68,84.65 128.22,82.3 			"/>
			<polygon class="st0" points="141.05,60.89 141.82,61.13 138.05,86.47 134.37,84.9 			"/>
			<polygon class="st0" points="140.89,87.57 142.99,88.46 143.36,75.02 			"/>
			<path class="st0" d="M145.42,70.24c-0.04-0.2,1.05-7.04,1.05-7.04l5.75,2.63c0,0-6.68,17.37-6.64,17.25
				C145.62,82.95,145.42,70.24,145.42,70.24z"/>
			<polygon class="st0" points="152.95,66.15 155.14,67.24 148.42,90.84 145.94,89.84 145.94,83.84 			"/>
			<polygon class="st0" points="156.15,67.69 161.41,70.48 151.86,92.48 149.03,91.09 			"/>
			<polygon class="st0" points="128.86,193.04 127.24,191.66 125.44,192.11 124.81,193.04 125.06,195.67 127,196.84 128.86,195.95 
				127.37,195.67 126.35,195.55 125.75,194.25 126.56,192.96 127.61,193.04 			"/>
			<polygon class="st0" points="128.62,199.39 126.84,198.75 125.3,199.39 125.02,201.74 126.07,203.56 127.93,203.89 
				129.55,202.51 129.55,201.7 128.09,202.43 126.35,202.39 126.11,201.32 126.64,200.04 			"/>
			<polygon class="st0" points="130.16,207 128.66,206.44 127,207 126.03,208.66 126.84,210.85 128.58,211.34 130.6,210.85 
				131.05,209.6 129.31,210.2 127.65,209.76 127.81,208.18 128.54,207.45 129.23,207.53 			"/>
			<polygon class="st0" points="133.88,213.24 132.51,214.33 131.94,215.99 132.91,217.49 134.49,218.3 136.47,217.41 
				137.12,216.15 136.84,214.66 135.79,215.77 135.22,216.84 133.8,216.88 133.43,216.07 133.43,215.14 			"/>
			<polygon class="st0" points="141.01,218.3 139.23,219.92 139.23,221.01 139.84,222.75 141.5,223.28 143.2,223.04 144.49,221.82 
				144.49,220.41 142.93,222.03 141.37,222.11 140.56,221.01 140.65,219.92 			"/>
			<polygon class="st0" points="148.3,222.96 146.96,224.78 147.63,226.8 149.75,227.73 151.7,227.17 152.67,225.35 152.43,224.62 
				151.17,226.2 149.51,226.48 148.5,225.83 148.5,224.5 			"/>
			<polygon class="st0" points="156.35,226.96 155.22,228.71 155.5,230.37 157.16,231.82 158.9,232.11 161.13,230.2 160.77,228.58 
				159.39,230.45 157.69,230.77 156.56,229.76 156.8,228.58 			"/>
			<polygon class="st0" points="164.94,230.77 163.98,232.11 164.29,233.77 165.95,234.98 167.93,234.98 169.43,233.69 
				169.19,232.11 167.77,234.01 166.07,233.89 165.26,232.71 165.38,231.46 			"/>
			<polygon class="st0" points="165.71,232.47 166.7,233.56 167.77,233.36 168.7,231.22 170.4,226.11 169.96,224.5 168.05,224.9 
				175.83,221.74 177.41,222.03 177.41,221.42 174.53,219.84 169.43,221.99 168.9,221.13 166.88,220.79 167.24,221.7 167.24,222.27 
				168.1,222.15 163.98,224.58 165.95,225.75 166.7,225.59 166.19,228.91 			"/>
			<polygon class="st0" points="170.32,227.33 170.96,225.83 173.12,224.09 174.74,224.09 177.2,225.35 177.2,226.11 175.83,225.95 
				173.76,227.33 173.03,228.46 			"/>
			<polygon class="st0" points="157.04,229.15 157.53,230.16 158.58,230.16 159.55,229.66 162.39,222.47 164.69,219.27 
				161.7,219.84 163.98,218.46 169.84,217.92 171.25,217.92 172.95,218.95 172.1,217.92 169.15,215.77 166.7,215.77 161.46,216.52 
				156.76,218.87 155.22,219.84 158.18,221.94 160.2,220.33 158.66,222.96 157.29,226.96 			"/>
			<polygon class="st0" points="148.9,225.35 149.55,226.07 150.93,225.71 152.87,223.28 155.38,215.77 156.03,213.24 
				152.87,214.78 156.03,212.75 158.9,212.19 161.5,213.24 164.41,213.89 165.02,214.66 165.02,213.64 162.31,212.19 159.75,210.61 
				156.96,210.2 156.43,209.6 153.16,208.89 153.4,209.6 153.12,210.53 154.98,210.04 151.33,211.62 146.96,215.02 149.35,216.72 
				152.02,215.1 149.43,220.57 149.07,222.67 			"/>
			<path class="st0" d="M141.86,221.62l1.21-0.2l1.42-2.11l2.63-5.71l3.08-1.66l1.98-1.26l0.49-2.02h-1.66l2.15-0.73l3.36,0.32
				l1.66,1.13l-0.28-1.66l-1.9-1.3h-3.68c0,0-5.3,1.26-5.34,1.3c-0.04,0.04-3.85,1.86-3.85,1.86l-1.9,1.42l1.46,1.26l2.39-2.23
				l4.09-1.15l-2.75,2.45l-2.31,3.28l-2.55,3.68l-0.32,2.49L141.86,221.62z"/>
			<path class="st0" d="M133.84,215.77l0.69,0.75l0.48-0.15l0.88-1.28l2.34-4.31l6.56-5.74l3.37-1.34l1.54-0.12v-0.61l-1.42-0.3
				l2.06-0.27l1.34,0.55l0.52,0.64l0.85,0.3l-0.37-1.7l-1.05-0.87l-4.19-0.44l-5.16,1.43l3.22-2.82l1.48-0.74v-0.78l-1.57,0.15
				l-3.53,2.7l-2.63,2.28l1-0.12l-3.11,1.15l-1.23,1.18l-5.34,1.93l-1.68,0.84l-0.63,0.27v1.15l0.82,0.18l2.25-0.8l3.23-1.02l3-1.67
				c0,0,3.83-2.52,3.98-2.55c0.15-0.03,3.4-0.79,3.4-0.79l2.05-0.33l-2.47,1.37l-6.08,4.16l-2.03,2.4l-2,3.1L133.84,215.77z"/>
			<path class="st0" d="M127.6,201.82c0.12-0.03,2.16-0.51,2.16-0.51l4.37-1.95l1.09-0.62l-0.69,0.83v0.71l3.39-0.98l7.26-1.52
				l2.13-0.15l1.76,0.33l0.18,0.91l0.7-1.25l-0.55-1.12l-3.37-0.39l-7.44,1.58l-2.82,0.85l2.7-2.43l3.07-1.37l2.1-1.91l0.15-0.46
				h-0.7l0.79-0.27l2.85,0.67l1.06,1.34l0.3,1.28l0.33-0.67l-0.27-1.94l-2.19-1.49l-4.37-0.36h-0.96l-1.26,0.52l1.43-0.94l1.55-0.43
				l0.61-0.82h-2.32l2.57-0.33l1.88,0.52l1.67,0.67l0.52,0.43l0.3-1.24l-0.06-0.88l-2.52,0.15l-1.03-0.66l-1.46-0.5H144l1.06-1.85
				l-0.82-1.85l-0.67-0.97l-0.49,0.58v2.76l-0.91,0.79l-5.65,0.27l-2.82-0.46l0.03,1.43l2.43,0.27l3.58,0.64l-0.79,0.24l-1.4,1.79
				l-1.85,0.33l-1.73,0.28l-0.06,1.08l2.19-0.47l-2.28,0.96l-5.44,0.33l-1.39,0.06l-0.31,0.97l0.6,0.61l2.96,0.39l4.29-0.09
				l1.9-2.19l1.06-1.05l3.71-0.2l0.93-0.09l-0.28,1.12l-3.91,1.7l-2.85,2.64l-4.8,1.94l-1.88,0.67l-1.42,0.3l-0.31,0.95l0.15,0.51
				H127.6z"/>
			<polygon class="st0" points="142.6,174.8 144.97,174.8 147.85,176.13 149.95,178.11 149.07,183.03 147.06,187.9 146.76,188.22 
				145.97,188.22 148,183.45 148.88,179.11 147.97,177.11 146.27,175.95 142.78,175.59 			"/>
			<polygon class="st0" points="146.18,190.24 146.45,191.26 147.34,191.89 146.96,190.68 			"/>
			<polygon class="st0" points="147.85,204.68 149.69,206.44 150.34,206.44 148.58,204.68 			"/>
			<path class="st0" d="M150.34,203.1c0.3,0.18,4.31,2.98,4.31,2.98h0.57l-2.44-1.88l-0.68-0.29l-0.67-0.68L150.34,203.1z"/>
			<polygon class="st0" points="148.29,198.21 149.1,200.02 149.69,200.91 150.42,201.02 149.35,199.68 148.85,198.21 			"/>
			<polygon class="st0" points="146.61,193.05 147.52,194.09 147.85,195.34 148.29,196.1 147.67,196.1 147.2,195.07 147.11,194.23 
				146.61,193.41 			"/>
			<polygon class="st0" points="156.48,208.53 159.12,210.2 158.27,210.2 155.88,208.44 			"/>
			<polygon class="st0" points="162.67,213.91 163.69,214.42 164.4,215.29 165.52,215.77 166.71,215.59 165.45,215.12 
				164.52,214.84 164.36,214.41 163.98,214.09 			"/>
			<polygon class="st0" points="170.69,218.46 172.77,220 173.91,219.84 171.52,218.46 			"/>
			<polygon class="st0" points="176.24,222.03 177.93,222.43 180.57,223.61 181.86,225.46 181.75,227.38 181.06,227.38 
				180.84,225.14 178.66,223.7 175.07,222.53 			"/>
			<polygon class="st0" points="170.32,227.85 172.72,228.88 174.48,230.77 174.48,232.46 171.66,239.75 167.29,238.56 
				158.02,234.65 149.31,230.16 138.86,223.14 151.8,230.43 165.52,236.74 170.69,238.72 171.72,237.65 172.63,234.98 
				170.96,233.86 172.95,234.4 173.76,231.44 173.15,230.03 170.17,228.46 			"/>
			<polygon class="st0" points="162,224.29 166.25,226.28 166.01,226.96 161.7,224.84 			"/>
			<polygon class="st0" points="154.32,220 158.18,222.47 158.18,223.38 154.02,220.79 			"/>
			<polygon class="st0" points="146.55,215.24 150.31,217.79 149.69,218.83 146.15,216.34 			"/>
			<polygon class="st0" points="139.47,210.2 144.09,213.73 143.33,214.67 138.53,210.78 			"/>
			<polygon class="st0" points="135.55,207.74 136.86,207.11 137.71,208.23 136.89,209.17 			"/>
			<polygon class="st0" points="122.19,203.4 132.64,205.71 135.28,205.25 135.86,204.68 134.53,202.31 133.91,199.88 130.3,201.55 
				130.09,203.1 128.24,204.22 125.38,203.74 124.41,201.49 122.89,199.88 123.19,192.77 125.02,190.77 126.03,190.41 
				125.02,189.92 123.07,190.89 122.19,190.13 121.71,191.07 121.92,191.5 			"/>
			<polygon class="st0" points="127,179.14 131.36,180.02 133.06,185.3 132.91,188.22 133.64,191.23 133.43,192.77 131.94,192.9 
				131.52,188.95 129.97,189.25 130.12,187.67 131.36,187.13 130.48,183.36 127.75,181.69 126.5,182.12 126.23,180.66 			"/>
			<polygon class="st0" points="123.5,183.94 122.31,188.55 121.71,182.45 122.92,179.81 			"/>
			<polygon class="st0" points="131.94,196.1 132.15,198.21 133.64,197.66 133.43,195.93 			"/>
			<path class="st0" d="M193.64,255.99l0.36-2.31l-15.91,3.16l-20.89-1.94l3.64,4.13l-21.74-3.4l-13.97-5.04l-3.16-4.43l2.55-6.19
				h2.06l-2.67-1.7l-24.41-7.04l-6.56,10.08l0.73,4.62l12.02,6.92l26.24,7.04l44.7,10.08l20.53-2.31L193.64,255.99z M115.12,252.05
				l-0.49-2l2.61-3.4l7.17,4.37l-3.34,3.04L115.12,252.05z M131.94,258.12l-8.56-2.25c0,0,2.49-3.46,2.65-3.64l7.55,3.4
				L131.94,258.12z M142.75,260.67l-7.77-1.7l1.03-2.31l8.08,2L142.75,260.67z M153.56,262.92l-8.5-1.88l1.09-1.82l9.07,1.46
				L153.56,262.92z M155.88,263.65l0.79-2.58l7.41,0.64l6.61,4.98L155.88,263.65z"/>
			<polygon class="st0" points="158.14,212.61 159.84,213.5 161.98,214.03 162.37,213.91 160.34,213.24 158.9,212.53 			"/>
			<polygon class="st0" points="167.57,218.46 169.43,218.3 172.1,220 171.58,220.53 169.19,218.83 			"/>
			<polygon class="st0" points="197.61,232.47 199.72,235.79 199.72,243.32 198.18,251.5 195.34,254.05 202.06,253.61 
				206.19,250.59 206.19,240.08 203.44,235.63 			"/>
			<polygon class="st0" points="195.34,255.17 195.34,257.57 198.66,268.18 206.19,267.05 206.84,265.83 202.31,255.17 
				203.04,254.05 200.12,254.5 			"/>
			<polygon class="st0" points="198.18,269.15 198.66,271.74 196.4,273.93 202.47,273.61 206.19,270.45 206.19,268.18 			"/>
			<polygon class="st0" points="148.16,172.85 148.29,174.46 152.71,172.22 153.65,171.91 154.56,169.79 			"/>
			<polygon class="st0" points="148.16,186.4 149.95,182.09 150.55,176.98 153.86,172.52 155.08,169.36 157.48,167.21 
				158.57,167.39 159.03,168.18 159.24,169.21 159.66,171.21 159.66,171.91 158.9,171.18 157.75,171.24 153.56,177.71 
				151.07,183.45 149.95,186.4 			"/>
			<polygon class="st0" points="148.16,187.49 148.29,189.1 147.85,190.5 148.29,191.89 148.91,193.05 149.95,194.25 149.35,195.78 
				150.34,196.24 150.42,198.48 150.34,199.33 150.71,200.06 152.16,199.61 153.04,189.92 151.47,187.49 			"/>
			<path class="st0" d="M150.77,186.02c0.06-0.08,3.58-8.15,3.61-8.24c0.03-0.09,2.95-4.65,3.04-4.74c0.09-0.09,1.12-0.91,1.12-0.91
				l0.73,0.24l-1.91,12.75l-0.15,2.19l-1.98,7.56l-1.93-0.62l0.15-4.94l-1.7-2.34l-1.29-0.3L150.77,186.02z"/>
			<polygon class="st0" points="157.9,187.9 159.66,189.4 159.66,193.78 158.51,196.42 155.87,194.87 157.45,188.43 			"/>
			<path class="st0" d="M150.98,200.37l2.61-1.25l1.12-1.31l1-0.24l-2.94-0.94l0.57-1.76l3.43,1.4l2.13,0.97l0.21,1.28l-0.21,1
				l-0.73,0.1l0.33-0.87l-0.37-0.78l-0.81-0.49l-0.64-0.03l-0.15,0.76l-0.55,0.36v0.67l-2.08,0.49l-0.74,0.49
				c0,0,2.85,0.21,2.95,0.15c0.09-0.06,2.06,0.24,2.06,0.24l0.73,0.71l0.36,1.17l-0.76,1.12l-0.61-1.79l-0.97-0.33l0.09,0.33
				l-1.9,2.46l-1.21,0.18l-0.44-0.43l0.79-0.94l0.39-0.97l1.58-0.55l-1.11-0.26h-2.54l-0.76-0.3L150.98,200.37z"/>
			<polygon class="st0" points="157.33,202.28 158.42,205.56 158.9,206.44 159.66,206.56 158.69,204.42 157.77,202.28 			"/>
			<polygon class="st0" points="157.08,206.56 158.49,207.47 158.63,208.14 159.66,208.14 160.94,209.17 160.45,209.66 
				160.94,209.81 161.7,208.89 160.61,207.77 159.39,206.98 			"/>
			<polygon class="st0" points="159.97,210.2 162.82,212.06 163.1,211.13 162.12,210.2 161.27,209.96 			"/>
			<g>
				<polygon class="st0" points="216.85,165.79 207.49,121.54 200.69,96.09 185.63,114.25 193.89,123.97 198.99,136.84 
					205.6,168.04 				"/>
				<polygon class="st0" points="217.23,167.57 205.92,169.54 206.5,172.25 217.72,169.9 				"/>
			</g>
		</g>
		<g>
			<polygon class="st0" points="635.6,98.01 630.71,93.39 625.1,93.39 618.81,95.93 630.6,122.2 637.41,117.29 640.13,109.23 			"/>
			<polygon class="st0" points="617.77,96.56 628.72,123.45 625.1,125.98 609.98,101.36 			"/>
			<path class="st0" d="M609.08,102.17c-0.27,0.18-4.35,3.17-4.35,3.17l11.32,25.26l7.15-3.89L609.08,102.17z"/>
			<polygon class="st0" points="603.28,106.34 596.77,110.59 611.52,132.95 614.69,131.32 			"/>
			<polygon class="st0" points="595.32,111.86 591.7,113.67 602.38,138.02 610.53,133.77 			"/>
			<polygon class="st0" points="589.7,115.3 584.36,119.01 597.58,141.37 601.11,138.93 			"/>
			<polygon class="st0" points="582.61,119.93 579.99,122.01 590.52,144.99 596.4,141.92 			"/>
			<polygon class="st0" points="578.57,123.36 572.05,127.25 586.72,147.53 589.61,145.72 			"/>
			<polygon class="st0" points="545.12,150.7 559.2,167.85 561.46,165.82 549.06,145.81 			"/>
			<polygon class="st0" points="550.01,145.22 552,143.32 566.67,161.61 562.09,165.05 			"/>
			<polygon class="st0" points="585.99,147.89 580.52,151.51 568.7,129.97 571.01,128.15 			"/>
			<polygon class="st0" points="567.48,131.05 562.5,134.58 578.03,153.32 579.57,152.19 			"/>
			<polygon class="st0" points="561.46,135.44 558.74,137.71 572.23,157.58 577.35,153.77 			"/>
			<polygon class="st0" points="557.79,138.57 552.77,142.78 567.8,160.7 571.28,158.12 			"/>
		</g>
		<g>
			<polygon class="st0" points="566.85,222.97 563.28,221.3 558.8,222.79 552.59,228.6 551.93,234.53 554.81,239.67 570.1,226.44 
							"/>
			<polygon class="st0" points="570.58,227.16 555.64,241.02 557.19,243.71 574.11,232.52 			"/>
			<path class="st0" d="M574.45,233.3c0.12,0.2,1.83,3.3,1.83,3.3l-14.69,12.72l-3.4-4.6L574.45,233.3z"/>
			<polygon class="st0" points="576.9,237.67 579.79,242.31 563.77,252.17 562.23,250.2 			"/>
			<polygon class="st0" points="580.33,243.55 582.1,245.77 568.08,258.11 564.16,252.99 			"/>
			<polygon class="st0" points="582.89,247.4 585.19,251.35 570.15,261.66 568.62,259.06 			"/>
			<polygon class="st0" points="586.03,252.45 587.08,254.55 573.57,266.06 570.73,262.36 			"/>
			<polygon class="st0" points="587.59,255.83 590.58,260.24 575.24,268.8 573.93,266.79 			"/>
			<polygon class="st0" points="600.77,283.15 586.73,289.89 585.89,287.93 599.72,278.87 			"/>
			<polygon class="st0" points="599.29,278.21 598.58,276.41 583.83,283.7 585.72,287.25 			"/>
			<polygon class="st0" points="575.59,269.25 578,273.17 591.91,262.96 590.98,261.12 			"/>
			<polygon class="st0" points="592.36,264.01 594.49,267.74 579.05,275.06 578.41,273.89 			"/>
			<polygon class="st0" points="594.89,268.59 595.95,270.84 581.48,279.49 579.35,275.55 			"/>
			<polygon class="st0" points="596.3,271.67 598.25,275.84 583.38,282.79 581.92,280.12 			"/>
		</g>
		<path class="st0" d="M488.02,250.05c0.08-1.14,0.17-2.27,0.26-3.56c-0.09-0.22-0.23-0.56-0.42-1c-0.38-0.05-0.7-0.13-1.01-0.13
			c-1.28,0-2.55,0.03-3.83,0.04c-0.67,0.01-1.34,0.04-2.01,0.01c-2.3-0.12-4.59-0.28-6.89-0.41c-0.81-0.04-1.63,0.02-2.44-0.04
			c-0.84-0.06-1.67-0.28-2.51-0.32c-2.33-0.1-4.66-0.13-6.99-0.2c-0.81-0.03-1.63-0.19-2.44-0.17c-1.97,0.06-3.94-0.08-5.93,0.22
			c-2.07,0.31-4.18,0.2-6.27,0.28c-0.81,0.03-1.62,0.16-2.44,0.16c-3.02,0-6.05-0.1-9.07-0.03c-1.98,0.05-3.95,0.05-5.93-0.05
			c-0.46-0.02-0.93,0.04-1.39,0.02c-2.71-0.15-5.41-0.39-8.12-0.47c-3.99-0.11-7.97-0.12-11.96-0.17c-0.58-0.01-1.15,0.08-1.73,0.03
			c-3.34-0.26-6.69-0.53-10.03-0.82c-0.63-0.05-1.26-0.21-1.89-0.28c-1.55-0.17-3.1-0.33-4.65-0.48c-1.16-0.11-2.32-0.27-3.48-0.25
			c-2.23,0.05-4.47,0.28-6.7,0.31c-2.52,0.03-5.05-0.1-7.58-0.13c-2.61-0.03-5.23-0.02-7.84-0.03c-1.14,0-2.27,0-3.41,0.01
			c-2.68,0.03-5.35,0.07-8.03,0.1c-1.04,0.01-2.08,0.05-3.12,0.02c-1.13-0.03-2.25-0.18-3.38-0.19c-1.57-0.01-3.15,0.09-4.72,0.07
			c-2.24-0.03-4.48-0.14-6.72-0.17c-1.51-0.02-3.03,0.07-4.54,0.03c-2.76-0.08-5.52-0.18-8.28-0.34c-2.55-0.15-5.11-0.39-7.66-0.62
			c-1.66-0.15-3.31-0.35-4.96-0.53c-1.65-0.18-3.3-0.35-4.95-0.55c-0.98-0.12-1.96-0.3-2.94-0.4c-0.69-0.07-1.4,0.02-2.09-0.08
			c-0.95-0.14-1.89-0.36-2.85-0.26c-0.2,0.02-0.4-0.11-0.6-0.15c-0.63-0.13-1.27-0.33-1.9-0.35c-1.69-0.05-3.37-0.03-5.06-0.02
			c-1.92,0-3.83-0.01-5.75,0.04c-1.3,0.03-2.6-0.19-3.9-0.01c-1.39,0.19-2.79,0.2-4.18,0.24c-0.78,0.02-1.57-0.07-2.35-0.08
			c-0.99,0-1.97,0.1-2.96,0.04c-1.45-0.08-2.9-0.26-4.35-0.41c-1.16-0.12-2.31-0.25-3.47-0.38c-0.47,0.7-0.66,1.51-0.65,2.43
			c0.01,1.3-0.02,2.61-0.03,3.91c-0.03,0-0.05,0-0.08-0.01c0.14,0.85,0.28,1.7,0.42,2.55c-0.14,0.78-0.18,1.57-0.21,2.35
			c-0.01,0.4,0.05,0.81,0,1.19c-0.15,1.18-0.3,2.35-0.17,3.55c0.03,0.32,0.04,0.64,0.03,0.96c-0.07,2.24-0.16,4.47-0.2,6.71
			c-0.01,0.48,0.18,0.96,0.26,1.36c0.44,0.17,0.75,0.28,0.86,0.33c0.77-0.1,1.35-0.28,1.91-0.23c1.07,0.1,2.13,0.4,3.19,0.5
			c1.76,0.16,3.53,0.22,5.3,0.32c0.14,0.01,0.29-0.01,0.43-0.02c1.5-0.12,3.01-0.28,4.51-0.35c1.22-0.06,2.44,0.02,3.66-0.01
			c3.46-0.1,6.92-0.27,10.37,0.27c1.47,0.23,2.96,0.34,4.43,0.48c0.7,0.07,1.4,0.04,2.09,0.11c1.77,0.18,3.53,0.39,5.3,0.58
			c0.03,0,0.06,0.02,0.09,0.02c0.64,0.1,1.27,0.22,1.91,0.29c2.12,0.24,4.23,0.46,6.35,0.7c1.42,0.16,2.84,0.36,4.26,0.49
			c1.19,0.11,2.38,0.08,3.56,0.21c2.26,0.25,4.51,0.39,6.78,0.45c2.58,0.07,5.16-0.08,7.74,0.08c2.78,0.17,5.57,0.05,8.36,0.07
			c1.42,0.01,2.85,0.02,4.27,0.05c0.34,0.01,0.68,0.02,1.01,0.03l16-10.76l13.46-6.62l8.02-1.51l6.56,2.79l3.35,10.11l-1.99,6.82
			c0.93,0.09,1.86,0.18,2.79,0.25c1.91,0.13,3.83,0.14,5.75,0.22c1.8,0.08,3.59,0.26,5.39,0.29c3.64,0.06,7.27,0.04,10.91,0.05
			c0.7,0,1.39,0.01,2.09,0.07c2.21,0.18,4.41,0.48,6.61,0.56c2.2,0.08,4.41-0.05,6.61-0.07c1.01-0.01,2.02,0.04,3.02,0.04
			c1.04,0,2.09,0.02,3.13-0.03c2.09-0.11,4.18-0.26,6.27-0.38c0.26-0.02,0.52,0,0.78-0.01c1.6-0.05,3.2-0.13,4.8-0.15
			c1.39-0.02,2.78,0.05,4.16,0.03c1.16-0.02,2.32-0.17,3.47-0.15c2.33,0.04,4.65,0.14,6.98,0.23c0.7,0.03,1.39,0.09,2.09,0.15
			c1.39,0.13,2.78,0.33,4.17,0.42c1.69,0.1,3.38,0.09,5.06,0.16c0.98,0.04,1.97,0.28,2.95,0.19c1.12-0.09,2.19,0.03,3.27,0.39
			c0.8,0.27,1.41-0.25,1.51-1.37c0.11-1.18,0.16-2.37,0.26-3.79c0.03-0.07,0.21-0.35,0.22-0.64c0.07-1.87,0.96-3.56,0.62-5.51
			c-0.02-0.11-0.01-0.24,0.01-0.36c0.2-1.2,0.37-2.42,0.62-3.61c0.25-1.14,0.15-2.38,0.56-3.48c0.09-0.23-0.05-0.61-0.08-0.92
			c-0.01-0.12-0.01-0.24-0.01-0.35c0.13-0.32,0.25-0.64,0.38-0.95C488.12,250.07,488.07,250.06,488.02,250.05z"/>
		<g>
			<polygon class="st0" points="389.21,255.1 385.78,251.86 381.84,251.86 377.42,253.64 385.7,272.09 390.48,268.64 392.39,262.99 
							"/>
			<polygon class="st0" points="376.69,254.09 384.38,272.97 381.84,274.75 371.22,257.46 			"/>
			<path class="st0" d="M370.59,258.03c-0.19,0.13-3.05,2.22-3.05,2.22l7.95,17.73l5.02-2.73L370.59,258.03z"/>
			<polygon class="st0" points="366.52,260.95 361.94,263.94 372.3,279.64 374.53,278.5 			"/>
			<polygon class="st0" points="360.93,264.83 358.38,266.1 365.89,283.2 371.61,280.21 			"/>
			<polygon class="st0" points="356.99,267.25 353.24,269.85 362.52,285.55 365,283.83 			"/>
			<polygon class="st0" points="352.01,270.49 350.17,271.96 357.56,288.09 361.69,285.93 			"/>
			<polygon class="st0" points="349.17,272.9 344.59,275.64 354.89,289.87 356.92,288.6 			"/>
			<polygon class="st0" points="325.68,292.1 335.57,304.14 337.16,302.71 328.45,288.67 			"/>
			<polygon class="st0" points="329.11,288.25 330.51,286.92 340.81,299.76 337.6,302.17 			"/>
			<polygon class="st0" points="354.38,290.13 350.53,292.67 342.24,277.54 343.86,276.27 			"/>
			<polygon class="st0" points="341.38,278.3 337.89,280.78 348.79,293.94 349.87,293.15 			"/>
			<polygon class="st0" points="337.16,281.39 335.25,282.98 344.72,296.93 348.31,294.26 			"/>
			<polygon class="st0" points="334.58,283.58 331.05,286.54 341.6,299.12 344.05,297.31 			"/>
		</g>
		<path class="st0" d="M219.25,340.76c0,0,5.97-7.1,13.27-6.11c7.3,1,8.96,4.02,17.92,3.01c8.96-1.02,10.29-5.52,18.58-3.1
			l6.97,2.75c0,0-11.73,0.83-17.31,2.98c-5.58,2.16-10.72,2.82-17.36,1.66C234.68,340.79,229.04,335.76,219.25,340.76z"/>
		<path class="st0" d="M460.16,374.68c0,0,5.04-3.92,11.04-3.18c6,0.74,7.32,2.51,14.72,2.14c7.4-0.37,8.57-2.91,15.36-1.34
			l5.7,1.73c0,0-9.68,0.2-14.32,1.3c-4.63,1.1-8.88,1.36-14.33,0.54C472.87,375.06,468.3,372.05,460.16,374.68z"/>
		<path class="st0" d="M277.25,384.7c0,0,5.57-6.39,11.01-4.61c5.45,1.78,6.29,4.95,13.29,4.92c7-0.04,8.65-4.35,14.66-1.06
			l4.95,3.48c0,0-9.1-0.45-13.67,1.08c-4.57,1.53-8.6,1.63-13.52-0.24C289.06,386.4,285.44,380.8,277.25,384.7z"/>
		<path class="st0" d="M581.37,373.83c1.69,0.92,3.61,1.62,6.9,1.6c0.38,0,0.73-0.02,1.08-0.05l8.55-64.34l2.97-17.83l-0.02-8.7
			l-13.24,6.45l2.89,18.45L581.37,373.83z"/>
		<path class="st0" d="M347.57,339.62l8.52,1.22c0.78,0.11,1.34-0.72,0.95-1.4l-3.75-6.52c-0.65-1.13,0.2-2.54,1.51-2.49l26.42,1.06
			c9.44,0.38,18.76,2.28,27.6,5.63l12.89,4.89c0.71,0.27,0.4,1.33-0.35,1.17l-21.62-4.63c-5.78-1.24-11.67-1.89-17.58-1.94
			l-22.53-2.13c-0.56-0.01-0.89,0.62-0.58,1.08l7.34,10.8c1.1,1.61-0.56,3.68-2.37,2.95l-16.87-8.14
			C346.28,340.8,346.64,339.49,347.57,339.62z"/>
		<path class="st0" d="M126.18,331.08l-19.93,3.45c-5.36,0.93-10.89,1.56-16.5,1.9l-14.19,0.85c-6.38,0.38-12.83,0.38-19.21-0.02
			l-19.41-1.21c-1-0.06-1.32,0.69-0.36,0.85l11.14,1.92c13.57,2.33,28.07,2.79,42.08,1.32l0,0c7.86-0.83,15.44-2.25,22.52-4.21
			l14.51-4.04C127.74,331.63,127.15,330.91,126.18,331.08z"/>
		<path class="st0" d="M491.27,307.93l-12.26,0.93c-3.3,0.25-6.63,0.2-9.95-0.16l-8.39-0.9c-3.78-0.41-7.51-1.2-11.12-2.37l-11-3.56
			c-0.57-0.18-0.91,0.51-0.39,0.79l6.06,3.24c7.38,3.95,14.63,6.19,23.05,6.47c0,0,7.83,0.47,14.98-1.39l9.24-2.17
			C492.07,308.66,491.87,307.89,491.27,307.93z"/>
		<path class="st0" d="M563.23,378.29c0,0,5.57-6.39,11.01-4.61c5.45,1.78,6.29,4.95,13.29,4.92c7-0.04,8.64-4.35,14.66-1.06
			l4.95,3.48c0,0-9.1-0.45-13.67,1.08c-4.57,1.53-8.6,1.63-13.52-0.24C575.04,379.99,571.42,374.39,563.23,378.29z"/>
		<path class="st0" d="M683.65,367.58l-11.85-1.45c-11.27-1.38-22.12-5.17-31.79-11.13l-18.25-11.24c-4.06-2.5-8.25-4.76-12.57-6.79
			l-11.28-5.29l-1.39,11.75c9.58,4.19,18.62,9.55,26.89,15.98l3.87,3.01c7.96,6.19,17.95,9.16,28,8.32l28.35-2.37
			C684.11,368.33,684.12,367.64,683.65,367.58z"/>
	</g>
	<g>
		<path class="st0" d="M562.31,330.96l21.06,7.45l2.05-12.59l-6.37-2.99c-21.05-9.88-44.42-13.68-68.25-11.17l-5.95,20.49
			c7.12,0.6,13.46,1.49,19.72,2.83l39.48,8.48c1.75,0.38,2.75-1.92,1.29-2.95l-5.85-4.11C556.55,334.34,558.91,329.76,562.31,330.96
			z"/>
	</g>
	<g>
		<path class="st0" d="M229.45,295.64l-28.52,9.49l-20.81,8.06c-8.47,3.28-17.84,3.35-26.36,0.2c-6.52-2.41-13.59-2.95-20.41-1.55
			l-0.58,0.12c-11.19,2.3-22.15,5.58-32.76,9.81c-16.85,6.72-35.08,9.27-53.13,7.45c-0.28-0.03-0.35,0.38-0.07,0.44l3.84,0.89
			c15.59,3.6,31.77,3.84,47.47,0.71l37.47-7.48c4.16-0.83,7.42,3.53,5.45,7.29c-1.85,3.52-5.25,5.97-9.18,6.61l-0.97,0.16
			c-1.67,0.27-1.45,2.74,0.24,2.72c5.77-0.1,11.49-0.99,17.01-2.67l84.37-25.7L229.45,295.64z"/>
	</g>
	<g>
		<path class="st0" d="M318.52,304.01c-3.45-0.84-6.86-1.87-10.19-3.16l-28.04-10.86c-10.04-3.89-21.13-4.16-31.36-0.77l-1.13,0.34
			l3.88,16.89l8.26-2.49c3.71-1.13,6.59,3.3,4.05,6.24l-4.48,5.17c-0.8,0.92-0.02,2.34,1.19,2.17l24.9-3.59
			c9.73-1.4,19.61,0.08,28.49,4.15L318.52,304.01z"/>
	</g>
	<path class="st0" d="M491.88,314.15l-11.32,1.53c-13.58,1.71-27.36-0.38-39.82-6.03l-11.48-5.21c-10.33-4.68-21.76-6.38-33-4.89
		l-46.86,6.21c-4.3,0.57-8.63,0.78-12.94,0.67l-10.27,14.83l-1.08,2.9l15.95,9.17c2.44,1.4,4.91-1.76,2.97-3.79
		c-1.43-1.5-0.45-3.99,1.62-4.11l13.01-0.73c8.08-0.46,16.19,0.16,24.11,1.82l45.39,9.54c1.01,0.21,1.81-0.85,1.33-1.77l-6.74-12.74
		c-1.29-2.45,1.31-5.11,3.79-3.88l14.31,7.15c8.71,4.35,18.3,6.67,28.04,6.77l17.04-0.07L491.88,314.15z"/>
	<path class="st0" d="M544.17,152.42l-5.25,11.23l-6.88,24.8L478.32,370.6c0.42,0.03,0.83,0.11,1.23,0.28
		c1.71,0.75,4.54,1.08,6.76,0.87l1.29-0.2c0.66-0.15,1.21-0.37,1.57-0.67c0.8-0.67,1.22-1.08,1.55-1.21l51.84-178.87l14.82-22.09
		L544.17,152.42z"/>
	<path class="st0" d="M325.01,293.31l-3.69,7.88l-4.83,17.42l-19.63,62.63c1.4,0.57,3.08,0.95,5.51,0.94
		c1.04-0.01,1.95-0.11,2.78-0.27l18.72-61.65l10.41-15.51L325.01,293.31z"/>
	<path class="st0" d="M250.44,335.08c1.03-0.12,1.94-0.28,2.79-0.47l-35.21-163.31l-11.14,2.76l34.67,160.48
		C243.82,335.17,246.38,335.54,250.44,335.08z"/>
</g>
</svg>
